<?xml version="1.0" standalone="no"?>
<!DOCTYPE svg PUBLIC "-//W3C//DTD SVG 1.1//EN" "http://www.w3.org/Graphics/SVG/1.1/DTD/svg11.dtd" >
<svg xmlns="http://www.w3.org/2000/svg">
<metadata></metadata>
<defs>
<font id="helvetica_neueregular" horiz-adv-x="1149" >
<font-face units-per-em="2048" ascent="1638" descent="-410" />
<missing-glyph horiz-adv-x="574" />
<glyph horiz-adv-x="2048" />
<glyph horiz-adv-x="2048" />
<glyph unicode="&#xd;" horiz-adv-x="687" />
<glyph unicode=" "  horiz-adv-x="574" />
<glyph unicode="&#x09;" horiz-adv-x="574" />
<glyph unicode="&#xa0;" horiz-adv-x="574" />
<glyph unicode="!" horiz-adv-x="535" d="M154 0h229v229h-229v-229zM170 1022l51 -643h93l52 643v455h-196v-455z" />
<glyph unicode="&#x22;" horiz-adv-x="880" d="M225 943h141v534h-141v-534zM515 943h140v534h-140v-534z" />
<glyph unicode="#" d="M71 426h200l-60 -426h143l60 426h257l-61 -426h142l61 426h209v141h-189l44 310h203v141h-184l59 423h-142l-61 -423h-255l60 423h-143l-60 -423h-230v-141h211l-43 -310h-221v-141zM434 567l44 310h256l-43 -310h-257z" />
<glyph unicode="$" d="M52 450q16 -217 138 -339.5t329 -143.5v-170h114v170q99 8 182 41t143 90.5t94 135.5t34 180q0 95 -36 163t-88 113.5t-107.5 71.5t-96.5 37l-125 32v509q190 -35 232 -239h175q-41 182 -140 285.5t-267 123.5v138h-114v-136q-89 -6 -166.5 -39.5t-134 -90t-90 -134 t-33.5 -170.5q0 -91 24.5 -155.5t77.5 -108.5t133 -76.5t189 -58.5v-549q-124 20 -206 101t-86 219h-175zM282 1096q0 118 69 179t168 71v-483q-51 14 -94.5 32.5t-76 44.5t-49.5 64t-17 92zM633 130v519q56 -16 105.5 -35.5t84.5 -49t56 -69t21 -100.5q0 -67 -19.5 -115.5 t-56 -80t-85 -48.5t-106.5 -21z" />
<glyph unicode="%" horiz-adv-x="2068" d="M190 1046q0 -84 17.5 -158.5t57 -130.5t103.5 -88t157 -32q91 0 153 35t102.5 92t58 133t17.5 155q0 85 -15.5 161t-54 131.5t-101.5 89t-160 33.5q-95 0 -159 -34.5t-103.5 -92t-56 -133.5t-16.5 -161zM345 1050q0 48 6.5 101t26 97.5t55 74t92.5 29.5q60 0 94 -29.5 t53 -74t24 -97.5t5 -99q0 -47 -6 -100.5t-26 -98t-55 -74t-95 -29.5q-57 0 -91.5 30.5t-53 75t-24 97t-5.5 97.5zM389 -43h178l1111 1537h-176zM1212 385q0 -85 17.5 -159t57 -129.5t103.5 -87.5t157 -32q91 0 153 34t102.5 91.5t58.5 132.5t18 156q0 85 -16 160.5t-54 131 t-101.5 89t-160.5 33.5q-95 0 -159 -34.5t-103.5 -92.5t-56 -133t-16.5 -160zM1368 389q0 47 6 100t25.5 97.5t55 74.5t92.5 30q60 0 94.5 -30t53 -74.5t23.5 -97.5t5 -98q0 -48 -6 -102t-25.5 -98.5t-55 -73t-95.5 -28.5q-57 0 -91.5 29.5t-53 74.5t-23.5 97.5t-5 98.5z " />
<glyph unicode="&#x26;" horiz-adv-x="1302" d="M69 379q0 -46 15 -114t65 -132t141 -110t239 -46q122 0 237 52t181 155l158 -184h229l-288 333l40 89q16 38 27.5 76.5t18.5 85.5t14 113h-167q-6 -114 -48 -229l-267 324q53 31 103 69.5t89.5 86t62 104.5t22.5 123q0 74 -30 131.5t-79.5 95t-115 56.5t-132.5 19 q-81 0 -143 -25t-104.5 -67.5t-64.5 -97t-22 -114.5q0 -56 13.5 -100.5t37.5 -85t53 -79.5l60 -83q-71 -37 -134 -79.5t-109.5 -95t-74 -118.5t-27.5 -153zM255 381q0 66 20.5 114.5t55.5 87.5t82 70.5t98 60.5l339 -408q-53 -81 -133 -128.5t-182 -47.5q-53 0 -103.5 19 t-90 50.5t-63 78.5t-23.5 103zM426 1165q0 80 53.5 118.5t116.5 38.5q79 0 124.5 -46.5t45.5 -110.5q0 -48 -19 -86.5t-47.5 -69t-64.5 -56.5l-66 -45l-50 63q-25 31 -45.5 63t-34 64.5t-13.5 66.5z" />
<glyph unicode="'" horiz-adv-x="574" d="M217 943h141v534h-141v-534z" />
<glyph unicode="(" horiz-adv-x="535" d="M97 559q0 -137 22.5 -261t65 -242t102.5 -232.5t135 -230.5h135q-147 238 -210 471.5t-63 494.5q0 254 61.5 486t211.5 467h-135q-161 -213 -243 -461t-82 -492z" />
<glyph unicode=")" horiz-adv-x="535" d="M-18 -407h132q162 213 243 460t81 491q0 137 -22.5 261t-65 243t-102.5 233.5t-134 230.5h-132q144 -238 207 -472.5t63 -495.5q0 -252 -62 -485t-208 -466z" />
<glyph unicode="*" horiz-adv-x="727" d="M49 1226l220 -78l-135 -188l93 -64l135 198l143 -198l85 64l-137 188l226 78l-42 100l-221 -83v234h-110v-234l-219 83z" />
<glyph unicode="+" horiz-adv-x="1240" d="M99 453h451v-453h141v453h450v141h-450v452h-141v-452h-451v-141z" />
<glyph unicode="," horiz-adv-x="574" d="M172 0h122q2 -25 -3 -54t-19.5 -56.5t-38.5 -51.5t-59 -37v-103q120 35 173.5 120t53.5 202v209h-229v-229z" />
<glyph unicode="-" horiz-adv-x="803" d="M103 492h598v166h-598v-166z" />
<glyph unicode="." horiz-adv-x="574" d="M172 0h229v229h-229v-229z" />
<glyph unicode="/" horiz-adv-x="687" d="M-35 -33h149l612 1545h-151z" />
<glyph unicode="0" d="M87 720q0 -81 4 -167.5t20.5 -169.5t47.5 -156t85 -129.5t136 -88.5t195 -32q116 0 196.5 32t134.5 88.5t85 129.5t47 156t21 169.5t5 167.5t-5 168t-21 169t-47 157t-85 130.5t-135.5 89t-195.5 33.5t-195.5 -33.5t-135.5 -89t-85 -130.5t-47.5 -157t-20.5 -169t-4 -168 zM273 722q0 54 1 119t10.5 130t27 127t51.5 108.5t86 75.5t126 29t125.5 -29t86 -75.5t52 -108.5t27 -127t10.5 -130t1 -119q0 -83 -5 -185.5t-33 -192t-90 -152t-174 -62.5t-174 62.5t-89.5 152t-33 192t-5.5 185.5z" />
<glyph unicode="1" d="M180 1050h381v-1050h175v1467h-134q-14 -83 -53.5 -136.5t-96.5 -85t-127 -42.5t-145 -11v-142z" />
<glyph unicode="2" d="M49 0h958v156h-752q12 68 52 120.5t97.5 98t124.5 85.5l137 82q68 44 132.5 91.5t114 106.5t79.5 133t30 171q0 103 -36.5 182t-98.5 132t-145.5 81t-178.5 28q-117 0 -207.5 -39.5t-152 -109t-89.5 -164.5q-25 -78 -25 -167q0 -19 2 -40h176v17q0 57 15 116 q14 63 49 115t90 84t131 32q58 0 110 -18t90 -53.5t60.5 -84t22.5 -109.5q0 -76 -23.5 -134t-70 -107.5t-117 -98t-162.5 -106.5q-77 -46 -147.5 -98t-126.5 -120t-92 -160t-47 -222z" />
<glyph unicode="3" d="M62 440q0 -105 33 -190q33 -88 97.5 -149.5t155 -92.5t202.5 -31q103 0 195 28t161 83.5t108.5 139.5t39.5 194q0 132 -65 229t-199 127v4q87 39 145 116t58 176q0 101 -34.5 175.5t-94 122t-141.5 71.5t-177 24q-110 0 -193.5 -35.5t-139 -97t-86 -149t-34.5 -192.5h176 q0 63 16.5 121.5t51 101.5t87 69t122.5 26q113 0 187 -58.5t74 -176.5q0 -58 -22.5 -103.5t-61 -75.5t-89 -46t-107.5 -16h-37h-20q-9 0 -20 2v-148q50 6 107 6q66 0 122.5 -17.5t98 -53.5t66.5 -89t25 -121q0 -67 -26 -119.5t-69.5 -88.5t-101.5 -56t-122 -20 q-151 0 -229.5 90t-82.5 233h-176v-13z" />
<glyph unicode="4" d="M58 343h643v-343h166v343h199v156h-199v968h-141l-668 -954v-170zM209 499l488 717h4v-717h-492z" />
<glyph unicode="5" d="M73 395q2 -99 38.5 -178t101 -131.5t148 -80.5t179.5 -28q129 0 225 40.5t160 109t95.5 156.5t31.5 181q0 126 -36.5 220t-101 157t-151 94t-184.5 31q-75 0 -150 -26t-123 -79l-4 4l79 422h592v154h-725l-136 -760l151 -8q51 61 118 99.5t154 38.5q75 0 136 -24.5 t104.5 -69t67.5 -106t24 -133.5q0 -87 -25 -152t-67.5 -108.5t-99.5 -65.5t-118 -22q-67 0 -121.5 20t-95 56t-64.5 84.5t-28 104.5h-175z" />
<glyph unicode="6" d="M79 681q0 -116 17.5 -240.5t71 -227.5t153 -169.5t263.5 -66.5q138 0 232 47t151 118t82 158t25 168q0 101 -31.5 187.5t-88 151t-140.5 100.5t-190 36q-120 0 -212 -45.5t-153 -147.5l-4 5q2 85 16.5 182t52.5 181t106.5 138.5t179.5 54.5q105 0 169.5 -60t76.5 -159 h176q-16 182 -123.5 278.5t-290.5 96.5q-157 0 -260 -66.5t-165.5 -176t-88 -251.5t-25.5 -292zM288 458q0 68 19.5 128.5t58.5 105t95 70.5t131 26t130.5 -27t92.5 -71.5t55 -105.5t18 -128q0 -64 -20 -123.5t-57 -105t-92 -71.5t-127 -26q-73 0 -130 26t-95 69.5 t-58.5 103.5t-20.5 129z" />
<glyph unicode="7" d="M103 1277h770q-117 -123 -216.5 -267.5t-176.5 -307t-125.5 -339.5t-60.5 -363h196q10 172 58 353.5t123 353.5t172 323t209 261v150h-949v-164z" />
<glyph unicode="8" d="M83 422q0 -112 38.5 -196t105.5 -139.5t158 -82.5t196 -27q101 0 190.5 29t154.5 85.5t103.5 139.5t38.5 191q0 137 -64.5 230.5t-196.5 135.5q93 41 147.5 123t54.5 181q0 71 -24.5 138t-77.5 120t-137.5 85t-204.5 32q-85 0 -162.5 -25t-137.5 -72.5t-95.5 -117 t-35.5 -160.5q0 -99 56 -183t149 -121q-124 -44 -190 -140t-66 -226zM269 414q0 64 23.5 115.5t66 88.5t99.5 57t121 20q61 0 116 -22t96.5 -59t65.5 -87.5t24 -110.5q0 -61 -22 -113.5t-61.5 -90.5t-95 -60t-121.5 -22q-137 0 -224.5 76t-87.5 208zM320 1086q0 55 21 96.5 t55 71t81.5 43.5t99.5 14q107 0 176.5 -56.5t69.5 -168.5t-68 -174t-174 -62q-54 0 -101.5 14.5t-82.5 43.5t-56 73.5t-21 104.5z" />
<glyph unicode="9" d="M71 989q0 -107 29.5 -198.5t88.5 -155.5t146 -100t198 -36q107 0 198.5 54.5t141.5 147.5l4 -4q-8 -288 -89 -427.5t-242 -139.5q-105 0 -182 58t-87 166h-176q16 -190 138.5 -283.5t306.5 -93.5q267 0 387.5 204t120.5 585q0 209 -39.5 344t-108.5 214t-160 111t-194 32 q-105 0 -194 -35.5t-153.5 -98.5t-99 -151t-34.5 -193zM257 964q0 68 15.5 130t49.5 110.5t89 77.5t133 29q75 0 130.5 -27t94 -73t58 -106t19.5 -128q0 -64 -20.5 -123.5t-60 -104t-95.5 -70.5t-124 -26q-63 0 -116 26t-91.5 69.5t-60 99.5t-21.5 116z" />
<glyph unicode=":" horiz-adv-x="574" d="M172 0h229v229h-229v-229zM172 839h229v231h-229v-231z" />
<glyph unicode=";" horiz-adv-x="574" d="M172 0h122q2 -25 -3 -54t-19.5 -56.5t-38.5 -51.5t-59 -37v-103q120 35 174.5 120t52.5 202v209h-229v-229zM172 839h229v231h-229v-231z" />
<glyph unicode="&#x3c;" horiz-adv-x="1240" d="M95 460l1051 -474v138l-879 399l879 399v142l-1051 -476v-128z" />
<glyph unicode="=" horiz-adv-x="1240" d="M99 244h1042v141h-1042v-141zM99 662h1042v141h-1042v-141z" />
<glyph unicode="&#x3e;" horiz-adv-x="1240" d="M95 -14l1051 474v128l-1051 476v-142l880 -399l-880 -399v-138z" />
<glyph unicode="?" d="M114 1016h176q0 73 16 134.5t52.5 107t90.5 72t128 26.5q112 0 177 -63.5t73 -177.5v-23q0 -62 -18 -107q-23 -54 -61.5 -98.5t-83 -84.5t-84.5 -88t-68 -109t-32 -147v-98h175v80q0 54 16 96.5t41.5 78.5t57.5 68l65 63l67 69q31 35 56 76.5t40.5 92t15.5 114.5 q0 99 -32.5 175.5t-90.5 129.5t-137 81t-177 28q-107 0 -194 -37.5t-147 -104.5t-92 -158q-31 -85 -30 -184v-12zM450 0h231v229h-231v-229z" />
<glyph unicode="@" horiz-adv-x="1654" d="M87 744q0 -165 60 -306.5t164.5 -246t246 -164.5t305.5 -60q99 0 194 23.5t179 70t154 114t120 154.5h-130q-89 -114 -226.5 -182t-286.5 -68q-131 0 -246.5 50.5t-203.5 138.5t-139 208t-51 258q0 137 49 257t133.5 211t199.5 143.5t247 52.5q111 0 211 -37t178.5 -106 t125 -168.5t46.5 -221.5q0 -83 -26.5 -168t-68 -153t-92.5 -111.5t-99 -43.5q-49 0 -49 64q0 24 7.5 51t15.5 55l174 587h-131l-47 -130q-35 93 -97.5 131.5t-134.5 38.5q-110 0 -200 -52t-153 -135t-98 -188.5t-35 -212.5q0 -69 21.5 -128.5t60 -103.5t93 -69.5 t121.5 -25.5q76 0 142.5 42.5t113.5 96.5h6q4 -69 41.5 -102t91.5 -33q72 0 157 43.5t157 122t120.5 189t48.5 245.5q0 140 -55.5 257t-152 201t-224.5 131.5t-271 47.5q-157 0 -296.5 -60t-244 -164.5t-165.5 -244t-61 -299.5zM537 612q0 69 25.5 144t69 139.5t104 106.5 t133.5 42q33 0 63 -16.5t53.5 -42t37 -60.5t13.5 -73q0 -63 -24.5 -140t-68 -144t-101.5 -111.5t-126 -44.5q-79 0 -129 56.5t-50 143.5z" />
<glyph unicode="A" horiz-adv-x="1340" d="M-12 0h200l166 444h625l160 -444h217l-576 1477h-217zM416 610l250 689h5l245 -689h-500z" />
<glyph unicode="B" horiz-adv-x="1416" d="M162 0h713q110 0 193.5 36.5t140.5 95t86 135t29 157.5q0 137 -72.5 231.5t-209.5 124.5v4q105 41 162 127t57 204q0 112 -50.5 188.5t-122.5 119.5q-34 20 -80 30.5t-100 16t-109 6.5t-102 1h-535v-1477zM358 166v511h449q62 0 120 -12t102.5 -39.5t71 -75t26.5 -120.5 q0 -124 -73 -194t-204 -70h-492zM358 842v469h392q64 0 121.5 -7t101 -32t68.5 -70.5t25 -123.5q0 -118 -74 -177t-242 -59h-392z" />
<glyph unicode="C" horiz-adv-x="1492" d="M89 734q0 -161 42.5 -301.5t127 -244t213 -162.5t300.5 -59q283 0 446.5 155t192.5 435h-197q-6 -91 -37 -170t-86 -135.5t-130 -89t-173 -32.5q-133 0 -227.5 49.5t-156 133.5t-90 196.5t-28.5 238.5q0 117 28.5 224.5t90 191t155 133t226.5 49.5q155 0 268 -78 t146 -236h196q-16 118 -69.5 208t-134.5 150t-184.5 91t-219.5 31q-170 0 -301 -61t-219 -166.5t-133.5 -247t-45.5 -303.5z" />
<glyph unicode="D" horiz-adv-x="1455" d="M162 0h507q183 0 317.5 51.5t221.5 150t128.5 242.5t41.5 330q0 355 -184.5 529t-524.5 174h-507v-1477zM358 166v1145h331q136 0 229 -38t152 -111.5t85 -178t26 -237.5q0 -136 -28 -232t-71.5 -160t-98 -101.5t-110.5 -57t-105.5 -24.5t-82.5 -5h-327z" />
<glyph unicode="E" horiz-adv-x="1263" d="M162 0h1026v166h-830v511h767v165h-767v469h823v166h-1019v-1477z" />
<glyph unicode="F" horiz-adv-x="1186" d="M162 0h196v677h678v165h-678v469h773v166h-969v-1477z" />
<glyph unicode="G" horiz-adv-x="1569" d="M89 709q0 -144 47.5 -278.5t138.5 -238t221.5 -164.5t295.5 -61q130 0 258.5 50.5t215.5 166.5l52 -184h123v778h-647v-166h472v-22q0 -89 -27 -168q-31 -87 -92 -152t-150 -102.5t-205 -37.5q-124 0 -218 48.5t-158.5 130.5t-97 188.5t-32.5 222.5q0 118 28.5 231 t90 200.5t157.5 141t230 53.5q83 0 156.5 -19.5t131 -58.5t97 -100t54.5 -146h196q-20 130 -77 222t-141 152t-190.5 88t-226.5 28q-176 0 -307 -65t-219 -174.5t-132.5 -255.5t-44.5 -308z" />
<glyph unicode="H" horiz-adv-x="1492" d="M162 0h196v677h777v-677h197v1477h-197v-635h-777v635h-196v-1477z" />
<glyph unicode="I" horiz-adv-x="535" d="M170 0h196v1477h-196v-1477z" />
<glyph unicode="J" horiz-adv-x="1072" d="M45 395q0 -211 112 -319.5t319 -108.5q124 0 208 34t134.5 90.5t72 129.5t21.5 148v1108h-196v-1080q0 -122 -51 -194.5t-185 -72.5q-73 0 -119.5 22t-72 61t-36 93t-10.5 118v62h-197v-91z" />
<glyph unicode="K" horiz-adv-x="1379" d="M162 0h196v517l246 229l533 -746h249l-648 881l623 596h-254l-749 -737v737h-196v-1477z" />
<glyph unicode="L" d="M162 0h977v166h-781v1311h-196v-1477z" />
<glyph unicode="M" horiz-adv-x="1800" d="M166 0h185v1229h5l461 -1229h168l461 1229h4v-1229h186v1477h-268l-468 -1242l-466 1242h-268v-1477z" />
<glyph unicode="N" horiz-adv-x="1492" d="M160 0h185v1186h4l772 -1186h215v1477h-186v-1198h-4l-777 1198h-209v-1477z" />
<glyph unicode="O" horiz-adv-x="1571" d="M79 738q0 -151 44.5 -290.5t133 -247t221 -170.5t308.5 -63t308 63t221.5 170.5t134 247.5t44.5 290q0 152 -44.5 291.5t-134 247t-221.5 171.5t-308 64t-308.5 -64t-221 -171.5t-133 -247t-44.5 -291.5zM275 738q0 112 29 221t91.5 195.5t159 139t231.5 52.5 q134 0 231.5 -52.5t159.5 -139t91 -195.5t29 -221t-29 -220t-91 -195.5t-159.5 -140t-231.5 -52.5q-135 0 -231.5 52.5t-159 140t-91.5 195.5t-29 220z" />
<glyph unicode="P" horiz-adv-x="1340" d="M162 0h196v604h451h8q217 0 329 114q116 116 115 322q0 207 -114.5 322t-337.5 115h-647v-1477zM358 770v541h384q168 0 246 -69t78 -202q0 -132 -77 -203q-76 -67 -232 -67h-5h-10h-384z" />
<glyph unicode="Q" horiz-adv-x="1571" d="M79 738q0 -151 44.5 -290.5t133 -247t221 -170.5t308.5 -63q205 0 353 87l227 -180l98 124l-194 154q112 112 168 264.5t56 321.5q0 152 -44.5 291.5t-134 247t-221.5 171.5t-308 64t-308.5 -64t-221 -171.5t-133 -247t-44.5 -291.5zM275 738q0 112 29 221t91.5 195.5 t159 139t231.5 52.5q134 0 231.5 -52.5t159.5 -139t91 -195.5t29 -221q0 -136 -41.5 -261.5t-128.5 -211.5l-196 157l-104 -120l164 -130q-99 -42 -205 -42q-135 0 -231.5 52.5t-159 140t-91.5 196t-29 219.5z" />
<glyph unicode="R" horiz-adv-x="1416" d="M162 0h196v631h479q73 0 116.5 -21.5t70 -58t39.5 -85t21 -102.5q10 -54 12 -109.5t4.5 -104.5t9.5 -88t27 -62h219q-31 37 -46 85.5t-23 102.5t-10.5 110t-6.5 109q-6 54 -17.5 104t-35 90t-64 69t-105.5 42v4q135 37 196 138t61 236q0 180 -118.5 283.5t-330.5 103.5 h-694v-1477zM358 796v515h488q139 0 201 -70t62 -182q0 -80 -28.5 -131t-74.5 -81t-108 -40.5t-130 -10.5h-410z" />
<glyph unicode="S" horiz-adv-x="1340" d="M77 486q0 -135 48.5 -232.5t132 -161t194.5 -94.5t235 -31q101 0 203.5 23.5t185 76.5t135.5 137t53 201q0 110 -40.5 182.5t-108 120t-152 75.5t-172.5 48.5t-173 38.5t-152 44.5t-107.5 69t-40.5 110.5q0 73 28.5 121.5t75 77.5t106.5 41t121 12q154 0 252.5 -71 t114.5 -231h186q-4 123 -46.5 210.5t-116 145.5t-170.5 85t-211 27q-101 0 -197.5 -26t-172 -79t-121 -134t-45.5 -193q0 -101 40.5 -168.5t107.5 -109.5t152 -68.5t174 -46.5l172 -38q84 -18 151.5 -48t108 -77.5t40.5 -124.5q0 -81 -33.5 -132.5t-87 -81t-120.5 -42.5 t-134 -13q-83 0 -161.5 21t-137.5 64.5t-95 110.5t-36 160h-186z" />
<glyph unicode="T" horiz-adv-x="1186" d="M4 1311h493v-1311h196v1311h493v166h-1182v-166z" />
<glyph unicode="U" horiz-adv-x="1492" d="M154 533q0 -296 160 -431t446 -135q278 0 429 141t151 425v944h-196v-944q0 -199 -98.5 -301t-285.5 -102q-199 0 -305 102.5t-106 300.5v944h-195v-944z" />
<glyph unicode="V" horiz-adv-x="1263" d="M0 1477l519 -1477h223l526 1477h-204l-427 -1280h-4l-422 1280h-211z" />
<glyph unicode="W" horiz-adv-x="1914" d="M25 1477l378 -1477h205l341 1241h4l338 -1241h205l395 1477h-197l-300 -1229h-4l-326 1229h-214l-331 -1229h-4l-290 1229h-200z" />
<glyph unicode="X" horiz-adv-x="1263" d="M0 0h219l410 610l397 -610h240l-520 760l489 717h-219l-385 -577l-368 577h-236l486 -717z" />
<glyph unicode="Y" horiz-adv-x="1340" d="M4 1477l571 -873v-604h197v604l564 873h-223l-432 -703l-443 703h-234z" />
<glyph unicode="Z" horiz-adv-x="1263" d="M45 0h1175v166h-941l917 1145v166h-1080v-166h848l-919 -1145v-166z" />
<glyph unicode="[" horiz-adv-x="535" d="M148 -407h387v140h-221v1639h221v140h-387v-1919z" />
<glyph unicode="\" horiz-adv-x="687" d="M-35 1512l610 -1545h151l-612 1545h-149z" />
<glyph unicode="]" horiz-adv-x="535" d="M0 -267v-140h387v1919h-387v-140h221v-1639h-221z" />
<glyph unicode="^" horiz-adv-x="1240" d="M103 546h147l368 745l375 -745h144l-450 895h-133z" />
<glyph unicode="_" horiz-adv-x="1034" d="M0 -154v-103h1034v103h-1034z" />
<glyph unicode="`" horiz-adv-x="458" d="M-45 1512l268 -296h133l-178 296h-223z" />
<glyph unicode="a" horiz-adv-x="1109" d="M75 275q0 -81 27.5 -137.5t76 -93t113 -52t136.5 -15.5q112 0 208 38.5t169 124.5q0 -86 40.5 -124.5t107.5 -38.5q81 0 127 27v136q-32 -10 -54 -10q-41 0 -48 29t-7 91v551q0 93 -35.5 150.5t-93.5 90t-129.5 42.5t-143.5 10q-89 0 -170 -18.5t-142.5 -60.5t-99 -111 t-41.5 -168h176q6 118 80 160.5t187 42.5q41 0 83.5 -6t76 -24.5t55.5 -54t22 -92.5q0 -50 -29 -76t-78.5 -39.5t-114.5 -21t-138 -21.5q-68 -12 -133 -31t-116 -55t-81.5 -94t-30.5 -149zM261 288q0 67 29.5 104.5t77.5 58.5t107.5 30t118.5 16.5t113 18.5t87 36v-179 q0 -38 -18 -80.5t-57.5 -78.5t-102 -60t-148.5 -24q-40 0 -78.5 8t-66 27t-45 49t-17.5 74z" />
<glyph unicode="b" horiz-adv-x="1226" d="M138 0h176v142h4q29 -47 71.5 -79t90 -50.5t96 -27t88.5 -8.5q122 0 214.5 43.5t153 119t90.5 177t30 214.5q0 114 -31 215.5t-92 179t-153 123t-216 45.5q-113 0 -205.5 -40t-136.5 -130h-4v553h-176v-1477zM308 535q0 75 17.5 147.5t57 129.5t101.5 92t151 35 q85 0 148 -33t103.5 -88.5t60 -127t19.5 -146.5q0 -78 -16.5 -153t-54 -132.5t-98.5 -93t-152 -35.5t-155 34.5t-104.5 90t-59 129.5t-18.5 151z" />
<glyph unicode="c" horiz-adv-x="1109" d="M75 521q0 -120 31.5 -220t95 -172.5t157.5 -112t216 -39.5q205 0 324 107.5t147 306.5h-179q-17 -124 -90.5 -192.5t-203.5 -68.5q-83 0 -142.5 33.5t-97 88t-55 124.5t-17.5 145q0 81 16.5 156t55 133.5t102.5 93.5t159 35q112 0 178 -56t86 -157h182 q-10 95 -49.5 164.5t-100.5 114.5t-140 67t-171 22q-127 0 -221.5 -44.5t-158 -122t-94 -182t-30.5 -224.5z" />
<glyph unicode="d" horiz-adv-x="1226" d="M75 537q0 -114 30.5 -215t92 -177t153 -122t216.5 -46q112 0 205 39.5t136 127.5h4v-144h176v1477h-176v-550h-4q-29 48 -71.5 79.5t-90 51.5t-95 28t-88.5 8q-123 0 -214.5 -44.5t-153 -120t-91 -177t-29.5 -215.5zM261 525q0 79 16.5 153t54 132.5t99 93.5t150.5 35 q91 0 155.5 -34t104.5 -89.5t58.5 -129.5t18.5 -153q0 -74 -17.5 -146.5t-56.5 -129t-101 -92t-151 -35.5q-85 0 -148 33.5t-103.5 89t-60 126.5t-19.5 146z" />
<glyph unicode="e" horiz-adv-x="1109" d="M75 537q4 -122 35.5 -225t96 -177.5t159 -116t222.5 -41.5q182 0 301.5 91.5t154.5 270.5h-173q-24 -105 -95 -157t-182 -52q-87 0 -151 29t-105.5 78t-60.5 110q-16 58 -16 121v14h801v31q0 83 -20 174q-20 107 -77 198.5t-151 150t-237 58.5q-110 0 -201.5 -41.5 t-159.5 -115.5t-104.5 -175.5t-36.5 -224.5zM261 637q4 62 26.5 117t62 96.5t94.5 65t123 23.5q66 0 120.5 -23.5t95 -64t64.5 -96.5t28 -118h-614z" />
<glyph unicode="f" horiz-adv-x="612" d="M25 914h180v-914h176v914h207v156h-207v148q0 71 34.5 95.5t99.5 24.5q23 0 50 -3t49 -11v153q-25 8 -57 12.5t-56 4.5q-144 0 -220 -67.5t-76 -197.5v-159h-180v-156z" />
<glyph unicode="g" horiz-adv-x="1186" d="M75 529q0 -110 29.5 -208t90 -171t149 -116.5t208.5 -43.5q103 0 195 46.5t139 145.5h4v-70q0 -89 -18 -163.5t-57 -127t-99.5 -83t-146.5 -30.5q-44 0 -91.5 9.5t-88 30.5t-68 53.5t-29.5 80.5h-176q4 -87 45.5 -147t104.5 -97t140.5 -53.5t152.5 -16.5q256 0 375.5 130 t119.5 393v979h-164v-154h-2q-48 89 -132.5 133.5t-186.5 44.5q-139 0 -234 -52.5t-153 -134.5t-82.5 -182.5t-24.5 -195.5zM261 550q0 77 17.5 147.5t56 124t98 85.5t144.5 32q83 0 141 -33t94 -87.5t52.5 -123t16.5 -138.5q0 -75 -17.5 -149.5t-54.5 -133.5t-98.5 -95.5 t-147.5 -36.5q-87 0 -145 36.5t-93 95.5t-49.5 131.5t-14.5 144.5z" />
<glyph unicode="h" d="M132 0h176v604q0 73 19.5 134t59 106.5t98.5 70t139 24.5q101 0 159.5 -58t58.5 -157v-724h176v703q0 87 -17.5 158.5t-61 123t-114 80.5t-176.5 29q-47 0 -97.5 -10t-97.5 -32t-84 -56t-58 -84h-4v565h-176v-1477z" />
<glyph unicode="i" horiz-adv-x="458" d="M142 0h176v1070h-176v-1070zM142 1261h176v216h-176v-216z" />
<glyph unicode="j" horiz-adv-x="458" d="M-27 -248v-151q41 -8 89 -8q118 0 187 65t69 208v1204h-176v-1175q0 -83 -20.5 -115t-78.5 -32h-37q-8 0 -15 1t-18 3zM142 1261h176v216h-176v-216z" />
<glyph unicode="k" horiz-adv-x="1072" d="M142 0h176v405l166 154l366 -559h224l-456 681l424 389h-235l-489 -468v875h-176v-1477z" />
<glyph unicode="l" horiz-adv-x="458" d="M142 0h176v1477h-176v-1477z" />
<glyph unicode="m" horiz-adv-x="1763" d="M132 0h176v666q0 31 15.5 77.5t49.5 90t89 74.5t132 31q59 0 97.5 -17.5t61.5 -50t32 -76t9 -94.5v-701h177v666q0 124 74 198.5t204 74.5q64 0 104.5 -18.5t63 -51t31 -76t8.5 -92.5v-701h176v784q0 83 -25.5 142t-72 96t-112.5 54.5t-145 17.5q-105 0 -193.5 -47.5 t-142.5 -134.5q-33 99 -114 140.5t-180 41.5q-225 0 -345 -182h-4v158h-166v-1070z" />
<glyph unicode="n" d="M132 0h176v604q0 73 19.5 134t59 106.5t98.5 70t139 24.5q101 0 159.5 -58t58.5 -157v-724h176v703q0 87 -17.5 158.5t-61 123t-114 80.5t-176.5 29q-238 0 -347 -194h-4v170h-166v-1070z" />
<glyph unicode="o" horiz-adv-x="1186" d="M75 533q0 -118 32.5 -219t99 -176.5t164 -118t223.5 -42.5q128 0 224 42.5t162 118t99.5 177t33.5 218.5q0 118 -33.5 220.5t-99.5 178t-162 119t-224 43.5q-126 0 -223.5 -43.5t-164 -119t-99 -178t-32.5 -220.5zM261 533q0 97 25.5 173t71 128t106.5 78.5t130 26.5 t129.5 -26.5t106 -78.5t71.5 -127.5t26 -173.5q0 -97 -26 -172t-71.5 -126t-106.5 -78t-129 -27q-69 0 -130 27t-106.5 78t-71 126t-25.5 172z" />
<glyph unicode="p" horiz-adv-x="1226" d="M138 -407h176v549h4q29 -47 71.5 -79t90 -50.5t96 -27t88.5 -8.5q122 0 214.5 43.5t153 119t90.5 177t30 214.5q0 114 -31 215.5t-92 179t-153 123t-216 45.5q-113 0 -205.5 -40t-136.5 -130h-4v146h-176v-1477zM308 535q0 75 17.5 147.5t57 129.5t101.5 92t151 35 q85 0 148 -33t103.5 -88.5t60 -127t19.5 -146.5q0 -78 -16.5 -153t-54 -132.5t-98.5 -93t-152 -35.5t-155 34.5t-104.5 90t-59 129.5t-18.5 151z" />
<glyph unicode="q" horiz-adv-x="1226" d="M75 537q0 -114 30.5 -215t92 -177t153 -122t216.5 -46q112 0 205 39.5t136 127.5h4v-551h176v1477h-176v-143h-4q-29 48 -71.5 79.5t-90 51.5t-95 28t-88.5 8q-123 0 -214.5 -44.5t-153 -120t-91 -177t-29.5 -215.5zM261 525q0 79 16.5 153t54 132.5t99 93.5t150.5 35 q91 0 155.5 -34t104.5 -89.5t58.5 -129.5t18.5 -153q0 -74 -17.5 -146.5t-56.5 -129t-101 -92t-151 -35.5q-85 0 -148 33.5t-103.5 89t-60 126.5t-19.5 146z" />
<glyph unicode="r" horiz-adv-x="687" d="M126 0h176v476q0 103 20.5 182.5t66 135.5t120.5 85t180 29v186h-18q-131 0 -218 -58q-92 -61 -157 -192h-4v226h-166v-1070z" />
<glyph unicode="s" horiz-adv-x="1034" d="M64 337q4 -99 41 -168.5t99.5 -112t143 -61t169.5 -18.5q81 0 163 15.5t147 55t105.5 103.5t40.5 161q0 77 -30.5 128.5t-79 86t-111.5 55t-130 34.5l-123 29q-62 13 -112 32.5t-82 50t-32 75.5q0 41 20.5 67t54 41.5t74 21.5t79.5 6q43 0 85.5 -9.5t77.5 -30t57.5 -54.5 t26.5 -85h176q-6 96 -41 161.5t-94 104t-135.5 53.5t-167.5 15q-71 0 -142 -17.5t-127.5 -53.5t-93 -94t-36.5 -139q0 -103 51.5 -161t129 -90t168.5 -49.5t169 -39.5t129.5 -57t51.5 -103q0 -50 -25 -82t-63 -49t-83.5 -23t-87.5 -6q-53 0 -103.5 11t-91 34.5t-65.5 64 t-27 97.5h-176z" />
<glyph unicode="t" horiz-adv-x="651" d="M18 914h183v-681q0 -74 14 -119t44.5 -70.5t79 -34.5t117.5 -9h134v156h-81q-41 0 -67 3t-40.5 13t-19.5 28.5t-5 49.5v664h213v156h-213v320h-176v-320h-183v-156z" />
<glyph unicode="u" d="M132 366q0 -87 18 -158.5t61.5 -123t113.5 -79.5t176 -28q118 0 204.5 47t142.5 146h4v-170h166v1070h-176v-604q0 -73 -19.5 -134t-59 -106.5t-98.5 -70.5t-140 -25q-101 0 -159 58t-58 157v725h-176v-704z" />
<glyph unicode="v" horiz-adv-x="1034" d="M29 1070l397 -1070h188l391 1070h-184l-292 -892h-4l-300 892h-196z" />
<glyph unicode="w" horiz-adv-x="1567" d="M35 1070l344 -1070h190l215 850h4l217 -850h187l341 1070h-183l-239 -875h-4l-224 875h-192l-215 -875h-4l-243 875h-194z" />
<glyph unicode="x" horiz-adv-x="1070" d="M18 0h213l298 442l298 -442h225l-413 577l368 493h-211l-267 -375l-256 375h-226l373 -507z" />
<glyph unicode="y" horiz-adv-x="1034" d="M16 1070l424 -1064l-71 -180q-26 -47 -59 -72t-87 -25q-27 0 -53 8l-50 17v-161q29 -10 60 -14.5t62 -4.5q60 0 103.5 15.5t80 49.5t66 88t60.5 133l466 1210h-187l-300 -875h-4l-312 875h-199z" />
<glyph unicode="z" horiz-adv-x="992" d="M45 0h902v156h-682l653 793v121h-831v-156h604l-646 -780v-134z" />
<glyph unicode="{" horiz-adv-x="687" d="M99 480q33 0 64.5 -17t55 -47.5t38 -76t14.5 -101.5v-374q0 -67 20.5 -117.5t53 -85t72 -51.5t77.5 -17h145v123h-104q-31 0 -49 16t-30 41.5t-16 58t-4 63.5v376q0 78 -21.5 130t-50.5 84t-59 46.5t-48 16.5v6q18 5 48 21.5t59 49.5t50.5 84t21.5 122v379q0 33 4 65 t16 56.5t30.5 40.5t48.5 16h104v124h-145q-40 0 -78.5 -17.5t-71 -51.5t-53 -85t-20.5 -117v-376q0 -54 -14.5 -99.5t-38 -78t-55 -50t-64.5 -17.5v-140z" />
<glyph unicode="|" horiz-adv-x="458" d="M160 -440h140v2066h-140v-2066z" />
<glyph unicode="}" horiz-adv-x="687" d="M49 -284v-123h146q39 0 78 17t71.5 51.5t53 85t20.5 117.5v374q0 54 14 98.5t38 76t55.5 49.5t64.5 18v140q-33 0 -64.5 16.5t-55.5 49t-38 78t-14 101.5v376q0 67 -20.5 117.5t-53 84.5t-72 51.5t-77.5 17.5h-146v-124h105q31 0 49 -16t29.5 -41.5t15.5 -57.5t4 -67 v-375q0 -79 22 -130.5t51 -83t59 -46t48 -17.5v-6q-18 -4 -48 -20.5t-59 -50t-51 -84t-22 -122.5v-376q0 -33 -4 -65.5t-15.5 -57t-30 -40.5t-48.5 -16h-105z" />
<glyph unicode="~" horiz-adv-x="1240" d="M142 474l75 -103q12 27 28 54.5t37.5 50.5t48.5 37t60 14q73 0 130.5 -25.5t107.5 -55.5q52 -29 102.5 -48t107.5 -19q48 0 86.5 15.5t69.5 40.5t55.5 56.5t47.5 65.5l-74 103l-37 -56q-18 -27 -40.5 -50t-48 -37t-56.5 -14q-41 0 -97 29t-114 54q-59 27 -117 46t-113 19 q-52 0 -92 -15.5t-72 -40t-54.5 -56.5t-40.5 -65z" />
<glyph unicode="&#xa1;" horiz-adv-x="535" d="M154 839h229v231h-229v-231zM170 45v-452h196v452l-52 644h-93z" />
<glyph unicode="&#xa2;" d="M95 521q0 -114 31.5 -212t90 -170t145 -115t201.5 -47v-215h80v215q97 0 173 35t129.5 94.5t85 133.5t39.5 151h-176q-16 -105 -77.5 -178t-173.5 -83v809q99 -4 159.5 -61t80.5 -152h181q-13 93 -48 162t-90 113.5t-126.5 67.5t-156.5 25v197h-80v-197 q-117 -8 -204.5 -56.5t-146 -126.5t-88 -178t-29.5 -212zM282 521q0 77 14 148t46.5 128t86 94.5t134.5 47.5v-809q-75 6 -128.5 41.5t-88 89t-49.5 121.5t-15 139z" />
<glyph unicode="&#xa3;" d="M97 114l98 -134q47 31 96.5 50t109.5 19t113 -13t104 -30l104 -26q50 -12 101 -13q81 0 161 19.5t141 73.5l-89 137q-37 -29 -85.5 -53t-98.5 -24q-47 0 -90 12l-83 26q-42 10 -89.5 20t-107.5 10q-62 0 -113 -18t-104 -42l-4 4q45 38 88.5 77t77 85.5t54 101t20.5 125.5 q0 44 -12.5 83t-28.5 73h282v93h-328l-37 72q-18 36 -34 72.5t-26.5 79t-10.5 92.5q0 57 22.5 107t63 86.5t94.5 56.5t116 20q148 0 223 -98t79 -279h176v16q0 254 -129 383q-130 134 -359 134q-95 0 -180 -29t-150 -83t-103.5 -131t-38.5 -177q0 -99 28 -176t69 -146h-120 v-93h176q18 -42 35 -94t17 -99q0 -60 -18.5 -114t-51 -101.5t-74 -87t-84.5 -67.5z" />
<glyph unicode="&#xa4;" d="M52 300l100 -99l113 119q61 -55 141 -83t173 -28q87 0 166.5 29t140.5 84l115 -119l97 97l-113 116q53 64 80 143.5t27 166.5t-27 168t-80 138l113 114l-103 105l-118 -116q-56 48 -134.5 76t-161.5 28q-87 0 -169.5 -28t-142.5 -78l-115 116l-102 -101l118 -120 q-58 -57 -85 -138t-27 -168t28 -163.5t80 -138.5zM233 722q0 77 27.5 143t74 114.5t109 76.5t137.5 28q72 0 133.5 -29t106 -77.5t70 -113.5t25.5 -138q0 -75 -25.5 -141t-70 -114.5t-107 -77.5t-134.5 -29q-73 0 -135.5 28t-109 75.5t-74 113.5t-27.5 141z" />
<glyph unicode="&#xa5;" d="M0 1477l379 -713h-191v-125h254l38 -68v-87h-292v-124h292v-360h197v360h298v124h-298v87l37 68h261v125h-193l368 713h-215l-349 -731l-361 731h-225z" />
<glyph unicode="&#xa6;" horiz-adv-x="458" d="M160 -182h140v515h-140v-515zM160 850h140v518h-140v-518z" />
<glyph unicode="&#xa7;" d="M73 673q0 -85 30.5 -149t81 -116t116 -92.5t131.5 -75.5l133 -72q63 -36 114 -73t82 -80.5t31 -95.5q0 -43 -18.5 -75t-47.5 -53.5t-67.5 -32t-74.5 -10.5q-105 0 -170 65t-67 171h-175q12 -182 120.5 -286.5t295.5 -104.5q85 0 155 23.5t121.5 67t81 104t29.5 135.5 q0 156 -123 247q93 37 154.5 119t61.5 185q0 76 -30.5 135.5t-78 107t-109.5 85t-126 73.5l-126 68q-62 34 -111 69.5t-77.5 76t-28.5 90.5q0 93 56.5 135t139.5 42q99 0 153 -66t56 -161h176q-5 195 -108.5 289t-272.5 94q-71 0 -139.5 -21.5t-122.5 -65t-87 -106 t-33 -142.5q0 -67 24.5 -119.5t70.5 -100.5q-46 -12 -86 -39.5t-70.5 -66t-47.5 -85t-17 -93.5zM242 681q0 66 45.5 116.5t105.5 71.5q71 -48 140 -91l146 -85l69 -44q40 -25 73 -54.5t55 -66t22 -80.5q0 -70 -44.5 -118t-105.5 -73q-70 47 -142.5 89.5t-145.5 81.5l-77 48 q-40 23 -70.5 52t-50.5 66t-20 87z" />
<glyph unicode="&#xa8;" horiz-adv-x="458" d="M-56 1224h184v215h-184v-215zM331 1224h186v215h-186v-215z" />
<glyph unicode="&#xa9;" horiz-adv-x="1654" d="M49 742q0 -167 62.5 -308.5t169 -246t248.5 -162.5t300 -58q160 0 300.5 58t246 162.5t167.5 246t62 308.5q0 164 -62 305t-167.5 244t-246 162t-300.5 59q-159 0 -300.5 -59t-248 -162t-169 -244t-62.5 -305zM190 742q0 139 49 259t135 208t202.5 138.5t252.5 50.5 q135 0 251 -50.5t202 -138.5t134 -208t48 -259q0 -142 -48 -263t-134 -210t-202 -139.5t-251 -50.5q-136 0 -252.5 50.5t-202.5 139.5t-135 210t-49 263zM395 738q0 -101 32.5 -187.5t92 -150t144 -99.5t190.5 -36q143 0 247.5 86.5t137.5 238.5h-132q-14 -93 -80.5 -152 t-172.5 -59q-74 0 -133 29.5t-100.5 79t-63.5 116.5t-22 138q0 75 21 139t60 112.5t98.5 75.5t135.5 27q105 0 172.5 -56.5t84.5 -143.5h130q-25 155 -132.5 234.5t-256.5 79.5q-105 0 -190 -35.5t-142.5 -97t-89 -148.5t-31.5 -191z" />
<glyph unicode="&#xaa;" horiz-adv-x="781" d="M52 971q0 -48 19.5 -83.5t53 -58t76.5 -33t93 -10.5q153 0 241 95q6 -95 106 -95q28 0 48 4t41 13v91q-12 -4 -23 -4h-22q-16 0 -23 14t-7 51v332q0 55 -24.5 90.5t-63 55t-86 27t-94.5 7.5q-58 0 -113 -11.5t-96.5 -38.5t-67 -68.5t-27.5 -101.5h124q4 67 50.5 92 t121.5 25q29 0 58 -4t51.5 -14t35.5 -29.5t13 -55.5q0 -20 -10 -33.5t-35.5 -22.5t-72 -15.5t-119.5 -14.5q-45 -4 -89.5 -16.5t-80 -36.5t-57 -61t-21.5 -90zM192 975q0 53 38.5 75t94.5 32q58 10 116 18.5t90 28.5v-97q0 -23 -11 -49t-35.5 -46.5t-65.5 -33.5t-99 -13 q-51 0 -89.5 15t-38.5 70z" />
<glyph unicode="&#xab;" horiz-adv-x="957" d="M103 484l315 -249v179l-207 161l207 161v178l-315 -248v-182zM509 484l314 -249v179l-207 161l207 161v178l-314 -248v-182z" />
<glyph unicode="&#xac;" horiz-adv-x="1240" d="M99 662h902v-437h140v578h-1042v-141z" />
<glyph unicode="&#xad;" horiz-adv-x="803" d="M103 492h598v166h-598v-166z" />
<glyph unicode="&#xae;" horiz-adv-x="1654" d="M49 742q0 -167 62.5 -308.5t169 -246t248.5 -162.5t300 -58q160 0 300.5 58t246 162.5t167.5 246t62 308.5q0 164 -62 305t-167.5 244t-246 162t-300.5 59q-159 0 -300.5 -59t-248 -162t-169 -244t-62.5 -305zM190 742q0 139 49 259t135 208t202.5 138.5t252.5 50.5 q135 0 251 -50.5t202 -138.5t134 -208t48 -259q0 -142 -48 -263t-134 -210t-202 -139.5t-251 -50.5q-136 0 -252.5 50.5t-202.5 139.5t-135 210t-49 263zM527 288h142v389h148l247 -389h150l-259 399q101 10 170 67t69 179q0 131 -78 195t-239 64h-350v-904zM669 790v288 h185q36 0 72 -5t64 -20t45 -41.5t17 -72.5q0 -53 -19 -83.5t-52.5 -45t-75.5 -17.5t-90 -3h-146z" />
<glyph unicode="&#xaf;" horiz-adv-x="458" d="M-120 1283h704v113h-704v-113z" />
<glyph unicode="&#xb0;" horiz-adv-x="827" d="M116 1169q0 -62 23 -117t63 -95.5t94.5 -63t117.5 -22.5q62 0 116 22.5t94 63t64 95.5t24 117q0 61 -24 115t-64 94.5t-94 64.5t-116 24t-117 -24t-95 -64.5t-63 -94.5t-23 -115zM219 1169q0 37 13.5 71.5t38.5 62t61.5 44.5t81.5 17q46 0 81.5 -17t60.5 -44.5t38.5 -62 t13.5 -71.5q0 -38 -13.5 -71.5t-38.5 -62t-60.5 -44.5t-81.5 -16q-45 0 -81.5 16t-61.5 44.5t-38.5 62t-13.5 71.5z" />
<glyph unicode="&#xb1;" horiz-adv-x="1240" d="M99 0h1042v140h-1042v-140zM99 561h451v-346h141v346h450v140h-450v343h-141v-343h-451v-140z" />
<glyph unicode="&#xb2;" horiz-adv-x="687" d="M29 579h626v114h-485q8 33 33.5 60t62 51.5t81 49.5t87.5 52q44 25 86.5 54t74.5 64t53 79.5t21 102.5q0 62 -24.5 111t-67 81.5t-98 50.5t-117.5 18q-145 0 -231 -88t-86 -231h141q0 81 38.5 142.5t131.5 61.5q72 0 121.5 -38.5t49.5 -105.5q0 -45 -14 -80.5 t-44.5 -65.5t-75.5 -59l-105 -64q-50 -29 -96 -60t-80.5 -71t-56.5 -95t-26 -134z" />
<glyph unicode="&#xb3;" horiz-adv-x="687" d="M8 856q0 -72 26 -126.5t70 -91t105.5 -55t129.5 -18.5q67 0 126.5 16.5t106 49.5t75 84t28.5 118q0 79 -43.5 137t-137.5 74v4q57 24 99 70.5t42 105.5q0 60 -22.5 106t-63 75.5t-95.5 45.5t-119 16q-138 0 -218 -78t-88 -214h141q0 76 39 126.5t126 50.5q69 0 114 -32.5 t45 -95.5q0 -73 -51.5 -103.5t-120.5 -30.5h-49v-103h68q38 0 71.5 -8t61 -28t43.5 -50t16 -74q0 -71 -57.5 -109.5t-136.5 -38.5q-185 0 -191 177h-140z" />
<glyph unicode="&#xb4;" horiz-adv-x="458" d="M103 1216h132l272 296h-225z" />
<glyph unicode="&#xb5;" d="M132 -407h176v461h4q27 -42 74.5 -59.5t114.5 -17.5q118 0 204.5 47t142.5 146h4v-170h166v1070h-176v-604q0 -73 -19.5 -134t-59 -106.5t-98.5 -70.5t-140 -25q-101 0 -159 58t-58 157v725h-176v-1477z" />
<glyph unicode="&#xb6;" horiz-adv-x="1240" d="M99 1050q0 -80 32.5 -150.5t89 -122t136 -81.5t174.5 -30v-984h142v1682h251v-1682h142v1795h-495q-220 0 -346 -111t-126 -316z" />
<glyph unicode="&#xb7;" horiz-adv-x="574" d="M156 643q0 -53 39.5 -92.5t94.5 -39.5q51 0 90.5 41.5t39.5 90.5q0 54 -39.5 93.5t-92.5 39.5q-54 0 -93 -39.5t-39 -93.5z" />
<glyph unicode="&#xb8;" horiz-adv-x="458" d="M10 -393q48 -16 95 -27.5t96 -11.5q43 0 88.5 9t83 30.5t61.5 57t24 87.5q0 76 -54.5 113.5t-119.5 37.5q-48 0 -69 -15l-4 5l87 107h-87l-126 -160l35 -57q23 8 41.5 12t43.5 4q41 0 69 -17t28 -47q0 -18 -12.5 -29.5t-31 -19.5t-41 -11.5t-43.5 -3.5q-34 0 -67.5 8.5 t-59.5 18.5z" />
<glyph unicode="&#xb9;" horiz-adv-x="687" d="M136 1216h239v-637h140v888h-103q-20 -85 -97 -116t-179 -31v-104z" />
<glyph unicode="&#xba;" horiz-adv-x="793" d="M52 1123q0 -75 23.5 -135.5t68 -106.5t108.5 -70.5t147 -24.5q170 0 256.5 94.5t86.5 242.5q0 73 -22.5 136t-66 109.5t-107.5 72.5t-149 26q-83 0 -148 -27t-108.5 -73.5t-66 -108.5t-22.5 -135zM192 1123q0 124 59 182.5t146 58.5q33 0 69.5 -10t66.5 -36.5t49.5 -74 t19.5 -122.5q0 -45 -11.5 -87.5t-35.5 -74.5t-61.5 -50.5t-94.5 -18.5q-56 0 -95 18.5t-64 51.5t-36.5 75.5t-11.5 87.5z" />
<glyph unicode="&#xbb;" horiz-adv-x="957" d="M134 235l314 249v182l-314 248v-178l207 -161l-207 -161v-179zM540 235l314 249v182l-314 248v-178l206 -161l-206 -161v-179z" />
<glyph unicode="&#xbc;" horiz-adv-x="1725" d="M75 1216h237v-637h141v888h-104q-20 -87 -96.5 -117t-177.5 -30v-104zM310 -56h132l900 1556h-132zM955 199h413v-199h128v199h124v113h-124v576h-106l-435 -570v-119zM1057 312l307 400h4v-400h-311z" />
<glyph unicode="&#xbd;" horiz-adv-x="1725" d="M75 1216h237v-637h141v888h-104q-20 -87 -96.5 -117t-177.5 -30v-104zM279 -56h133l899 1556h-132zM1022 0h626v114h-485q8 33 33.5 60t62 51.5t81 49.5t87.5 52q44 25 86 54t74.5 64t53 79.5t20.5 102.5q0 62 -24 110.5t-66.5 81.5t-98 51t-118.5 18q-144 0 -230 -88.5 t-86 -230.5h141q0 80 38 142.5t131 62.5q73 0 122.5 -39.5t49.5 -105.5q0 -45 -14 -80.5t-44.5 -65.5t-75.5 -59l-105 -64q-50 -30 -96 -60.5t-80.5 -71t-56.5 -95t-26 -133.5z" />
<glyph unicode="&#xbe;" horiz-adv-x="1725" d="M101 856q0 -72 26.5 -126.5t70.5 -91t105 -55t129 -18.5q67 0 126.5 16.5t106.5 49.5t75 84t28 118q0 79 -43.5 137t-136.5 74v4q57 24 98.5 70.5t41.5 105.5q0 60 -22.5 106t-63 75.5t-95.5 45.5t-119 16q-138 0 -218 -78t-88 -214h141q0 76 39 126.5t126 50.5 q69 0 114.5 -32.5t45.5 -95.5q0 -73 -52 -103.5t-120 -30.5h-50v-103h68q38 0 72 -8t61 -28t43.5 -50t16.5 -74q0 -71 -58 -109.5t-137 -38.5q-186 0 -190 177h-141zM444 -56h133l900 1556h-133zM991 199h412v-199h128v199h123v113h-123v576h-106l-434 -570v-119zM1094 304 l306 399h5v-399h-311z" />
<glyph unicode="&#xbf;" d="M140 -18q0 -99 32.5 -176t90 -130t138.5 -80.5t176 -27.5q107 0 194 38t148.5 104.5t91.5 157.5q29 83 29 181v13h-175q0 -71 -17 -132.5t-52.5 -107t-90 -72.5t-128.5 -27q-112 0 -177 64.5t-73 177.5v23q0 59 18 105q24 53 61.5 97.5t82 85t85 88.5t69 109.5 t32.5 146.5v81h-176v-64q0 -51 -15.5 -94.5t-41.5 -80t-57 -69.5l-67 -62q-35 -33 -67 -68.5t-56.5 -77t-39.5 -92t-15 -111.5zM468 839h229v231h-229v-231z" />
<glyph unicode="&#xc0;" horiz-adv-x="1340" d="M-12 0h200l166 444h625l160 -444h217l-576 1477h-217zM393 1879l271 -296h132l-178 296h-225zM416 610l250 689h5l245 -689h-500z" />
<glyph unicode="&#xc1;" horiz-adv-x="1340" d="M-12 0h200l166 444h625l160 -444h217l-576 1477h-217zM416 610l250 689h5l245 -689h-500zM544 1583h133l270 296h-225z" />
<glyph unicode="&#xc2;" horiz-adv-x="1340" d="M-12 0h200l166 444h625l160 -444h217l-576 1477h-217zM360 1583h159l145 198l143 -198h174l-215 296h-193zM416 610l250 689h5l245 -689h-500z" />
<glyph unicode="&#xc3;" horiz-adv-x="1340" d="M-12 0h200l166 444h625l160 -444h217l-576 1477h-217zM320 1601h108q-4 39 31 63t68 24q30 0 66 -12.5t73 -27.5q37 -16 73.5 -28.5t63.5 -12.5q60 0 98 17.5t65 47.5q52 72 64 165h-108q-10 -31 -31.5 -61t-63.5 -30q-33 0 -67 13.5t-69.5 29t-73.5 27.5t-80 12 q-49 0 -84 -18t-59.5 -49.5t-42.5 -73t-31 -86.5zM416 610l250 689h5l245 -689h-500z" />
<glyph unicode="&#xc4;" horiz-adv-x="1340" d="M-12 0h200l166 444h625l160 -444h217l-576 1477h-217zM383 1591h186v215h-186v-215zM416 610l250 689h5l245 -689h-500zM772 1591h185v215h-185v-215z" />
<glyph unicode="&#xc5;" horiz-adv-x="1340" d="M-12 0h200l166 444h625l160 -444h217l-576 1477h-217zM416 610l250 689h5l245 -689h-500zM436 1735q0 -47 19 -89.5t50.5 -74.5t74 -50.5t91.5 -18.5q47 0 89.5 18.5t74.5 50.5t50.5 74.5t18.5 89.5q0 48 -18.5 90t-50.5 74.5t-74.5 51.5t-89.5 19q-48 0 -91 -19 t-74.5 -51.5t-50.5 -74.5t-19 -90zM529 1735q0 60 40.5 101t101.5 41q59 0 99.5 -40.5t40.5 -101.5q0 -59 -40.5 -99.5t-99.5 -40.5q-60 0 -101 40.5t-41 99.5z" />
<glyph unicode="&#xc6;" horiz-adv-x="1914" d="M-12 0h219l211 430h509v-430h924v166h-738v511h683v165h-683v469h726v166h-1107zM494 596l348 715h85v-715h-433z" />
<glyph unicode="&#xc7;" horiz-adv-x="1492" d="M89 734q0 -155 38.5 -288.5t113.5 -234.5t191 -164t271 -76l-101 -131l35 -57q24 8 42 12t43 4q42 0 69.5 -17t27.5 -47q0 -18 -12.5 -29.5t-30.5 -19.5t-41 -11.5t-44 -3.5q-33 0 -67 8.5t-59 18.5l-38 -91q48 -16 95 -27.5t96 -11.5q44 0 89 9t82.5 30.5t61.5 57 t24 87.5q0 76 -54 113.5t-120 37.5q-48 0 -69 -15l-4 5l60 76q272 4 433 159.5t190 428.5h-197q-6 -91 -37 -170t-86 -135.5t-130 -89t-173 -32.5q-133 0 -227.5 49.5t-156 133.5t-90 196.5t-28.5 238.5q0 117 28.5 224.5t90 191t155 133t226.5 49.5q155 0 268 -78t146 -236 h196q-16 118 -69.5 208t-134.5 150t-184.5 91t-219.5 31q-170 0 -301 -61t-219 -166.5t-133.5 -247t-45.5 -303.5z" />
<glyph unicode="&#xc8;" horiz-adv-x="1263" d="M162 0h1026v166h-830v511h767v165h-767v469h823v166h-1019v-1477zM356 1879l271 -296h133l-179 296h-225z" />
<glyph unicode="&#xc9;" horiz-adv-x="1263" d="M162 0h1026v166h-830v511h767v165h-767v469h823v166h-1019v-1477zM507 1583h132l271 296h-225z" />
<glyph unicode="&#xca;" horiz-adv-x="1263" d="M162 0h1026v166h-830v511h767v165h-767v469h823v166h-1019v-1477zM322 1583h160l145 198l143 -198h173l-215 296h-193z" />
<glyph unicode="&#xcb;" horiz-adv-x="1263" d="M162 0h1026v166h-830v511h767v165h-767v469h823v166h-1019v-1477zM345 1591h186v215h-186v-215zM734 1591h186v215h-186v-215z" />
<glyph unicode="&#xcc;" horiz-adv-x="535" d="M-6 1879l269 -296h132l-178 296h-223zM170 0h196v1477h-196v-1477z" />
<glyph unicode="&#xcd;" horiz-adv-x="535" d="M142 1583h133l271 296h-226zM170 0h196v1477h-196v-1477z" />
<glyph unicode="&#xce;" horiz-adv-x="535" d="M-39 1583h157l145 198l142 -198h174l-215 296h-192zM170 0h196v1477h-196v-1477z" />
<glyph unicode="&#xcf;" horiz-adv-x="535" d="M-16 1591h184v215h-184v-215zM170 0h196v1477h-196v-1477zM371 1591h186v215h-186v-215z" />
<glyph unicode="&#xd0;" horiz-adv-x="1455" d="M16 701h146v-701h507q183 0 317.5 51.5t221.5 150t128.5 242.5t41.5 330q0 355 -184.5 529t-524.5 174h-507v-635h-146v-141zM358 166v535h443v141h-443v469h331q136 0 229 -38t152 -111.5t85 -178t26 -237.5q0 -136 -28 -232t-71.5 -160t-98 -101.5t-110.5 -57 t-105.5 -24.5t-82.5 -5h-327z" />
<glyph unicode="&#xd1;" horiz-adv-x="1492" d="M160 0h185v1186h4l772 -1186h215v1477h-186v-1198h-4l-777 1198h-209v-1477zM397 1601h108q-4 39 31 63t68 24q29 0 65 -12.5t73 -27.5q38 -16 74 -28.5t63 -12.5q59 0 98 17.5t65 47.5q53 72 65 165h-108q-10 -31 -32 -61t-63 -30q-33 0 -67 13.5t-69.5 29t-74 27.5 t-79.5 12q-49 0 -84.5 -18t-60.5 -49.5t-42 -73t-30 -86.5z" />
<glyph unicode="&#xd2;" horiz-adv-x="1571" d="M79 738q0 -151 44.5 -290.5t133 -247t221 -170.5t308.5 -63t308 63t221.5 170.5t134 247.5t44.5 290q0 152 -44.5 291.5t-134 247t-221.5 171.5t-308 64t-308.5 -64t-221 -171.5t-133 -247t-44.5 -291.5zM275 738q0 112 29 221t91.5 195.5t159 139t231.5 52.5 q134 0 231.5 -52.5t159.5 -139t91 -195.5t29 -221t-29 -220t-91 -195.5t-159.5 -140t-231.5 -52.5q-135 0 -231.5 52.5t-159 140t-91.5 195.5t-29 220zM509 1879l271 -296h132l-178 296h-225z" />
<glyph unicode="&#xd3;" horiz-adv-x="1571" d="M79 738q0 -151 44.5 -290.5t133 -247t221 -170.5t308.5 -63t308 63t221.5 170.5t134 247.5t44.5 290q0 152 -44.5 291.5t-134 247t-221.5 171.5t-308 64t-308.5 -64t-221 -171.5t-133 -247t-44.5 -291.5zM275 738q0 112 29 221t91.5 195.5t159 139t231.5 52.5 q134 0 231.5 -52.5t159.5 -139t91 -195.5t29 -221t-29 -220t-91 -195.5t-159.5 -140t-231.5 -52.5q-135 0 -231.5 52.5t-159 140t-91.5 195.5t-29 220zM660 1583h132l272 296h-227z" />
<glyph unicode="&#xd4;" horiz-adv-x="1571" d="M79 738q0 -151 44.5 -290.5t133 -247t221 -170.5t308.5 -63t308 63t221.5 170.5t134 247.5t44.5 290q0 152 -44.5 291.5t-134 247t-221.5 171.5t-308 64t-308.5 -64t-221 -171.5t-133 -247t-44.5 -291.5zM275 738q0 112 29 221t91.5 195.5t159 139t231.5 52.5 q134 0 231.5 -52.5t159.5 -139t91 -195.5t29 -221t-29 -220t-91 -195.5t-159.5 -140t-231.5 -52.5q-135 0 -231.5 52.5t-159 140t-91.5 195.5t-29 220zM476 1583h159l145 198l142 -198h174l-215 296h-192z" />
<glyph unicode="&#xd5;" horiz-adv-x="1571" d="M79 738q0 -151 44.5 -290.5t133 -247t221 -170.5t308.5 -63t308 63t221.5 170.5t134 247.5t44.5 290q0 152 -44.5 291.5t-134 247t-221.5 171.5t-308 64t-308.5 -64t-221 -171.5t-133 -247t-44.5 -291.5zM275 738q0 112 29 221t91.5 195.5t159 139t231.5 52.5 q134 0 231.5 -52.5t159.5 -139t91 -195.5t29 -221t-29 -220t-91 -195.5t-159.5 -140t-231.5 -52.5q-135 0 -231.5 52.5t-159 140t-91.5 195.5t-29 220zM436 1601h108q-4 39 31 63t68 24q30 0 65.5 -12.5t73.5 -27.5q37 -16 73.5 -28.5t62.5 -12.5q60 0 98 17.5t66 47.5 q52 72 64 165h-108q-10 -31 -31.5 -61t-63.5 -30q-33 0 -67 13.5t-69 29t-73.5 27.5t-80.5 12q-49 0 -84.5 -18t-60 -49.5t-42.5 -73t-30 -86.5z" />
<glyph unicode="&#xd6;" horiz-adv-x="1571" d="M79 738q0 -151 44.5 -290.5t133 -247t221 -170.5t308.5 -63t308 63t221.5 170.5t134 247.5t44.5 290q0 152 -44.5 291.5t-134 247t-221.5 171.5t-308 64t-308.5 -64t-221 -171.5t-133 -247t-44.5 -291.5zM275 738q0 112 29 221t91.5 195.5t159 139t231.5 52.5 q134 0 231.5 -52.5t159.5 -139t91 -195.5t29 -221t-29 -220t-91 -195.5t-159.5 -140t-231.5 -52.5q-135 0 -231.5 52.5t-159 140t-91.5 195.5t-29 220zM499 1591h186v215h-186v-215zM888 1591h186v215h-186v-215z" />
<glyph unicode="&#xd7;" horiz-adv-x="1240" d="M146 148l100 -99l376 377l375 -377l99 99l-374 377l372 373l-99 99l-373 -373l-374 373l-100 -99l375 -373z" />
<glyph unicode="&#xd8;" horiz-adv-x="1571" d="M77 20l67 -59l168 181q87 -82 205 -128.5t269 -46.5q176 0 308 63t221.5 170.5t134 247.5t44.5 290q0 149 -40.5 282.5t-127.5 240.5l170 187l-67 62l-163 -180q-87 87 -206 134.5t-274 47.5q-176 0 -308.5 -64t-221 -171.5t-133 -247t-44.5 -291.5q0 -148 42.5 -285 t128.5 -242zM275 738q0 112 29 221t91.5 195.5t159 139t231.5 52.5q118 0 207 -40.5t148 -111.5l-762 -843q-54 83 -79 182.5t-25 204.5zM434 277l764 842q51 -81 75 -180.5t24 -200.5q0 -112 -29 -220t-91 -195.5t-159.5 -140t-231.5 -52.5q-118 0 -205 39t-147 108z" />
<glyph unicode="&#xd9;" horiz-adv-x="1492" d="M154 533q0 -296 160 -431t446 -135q278 0 429 141t151 425v944h-196v-944q0 -199 -98.5 -301t-285.5 -102q-199 0 -305 102.5t-106 300.5v944h-195v-944zM470 1879l270 -296h133l-178 296h-225z" />
<glyph unicode="&#xda;" horiz-adv-x="1492" d="M154 533q0 -296 160 -431t446 -135q278 0 429 141t151 425v944h-196v-944q0 -199 -98.5 -301t-285.5 -102q-199 0 -305 102.5t-106 300.5v944h-195v-944zM620 1583h132l272 296h-225z" />
<glyph unicode="&#xdb;" horiz-adv-x="1492" d="M154 533q0 -296 160 -431t446 -135q278 0 429 141t151 425v944h-196v-944q0 -199 -98.5 -301t-285.5 -102q-199 0 -305 102.5t-106 300.5v944h-195v-944zM436 1583h160l144 198l143 -198h174l-215 296h-193z" />
<glyph unicode="&#xdc;" horiz-adv-x="1492" d="M154 533q0 -296 160 -431t446 -135q278 0 429 141t151 425v944h-196v-944q0 -199 -98.5 -301t-285.5 -102q-199 0 -305 102.5t-106 300.5v944h-195v-944zM460 1591h185v215h-185v-215zM848 1591h186v215h-186v-215z" />
<glyph unicode="&#xdd;" horiz-adv-x="1340" d="M4 1477l571 -873v-604h197v604l564 873h-223l-432 -703l-443 703h-234zM544 1583h133l270 296h-225z" />
<glyph unicode="&#xde;" horiz-adv-x="1340" d="M162 0h196v369h451h8q217 0 329 111q116 116 115 323q0 207 -114.5 322.5t-337.5 115.5h-451v236h-196v-1477zM358 533v543h384q168 0 246 -68.5t78 -204.5q0 -132 -77 -203q-77 -67 -237 -67h-10h-384z" />
<glyph unicode="&#xdf;" d="M132 0h176v1068q0 86 18.5 142t51 88t78 45t98.5 13q50 0 91.5 -18t72 -49.5t48.5 -73.5t18 -92q0 -71 -26 -119.5t-69.5 -76t-100.5 -37.5q-40 -8 -83 -9q-16 0 -35 2v-141q87 0 157 -10t119.5 -43.5t76.5 -94.5t27 -162q0 -136 -83.5 -219t-226.5 -83q-16 0 -35 1 t-35 5v-150q41 -8 89 -9q105 0 192.5 34t151 97.5t98.5 151t35 196.5q0 68 -17.5 130.5t-52.5 112t-88 84t-123 42.5v4q119 38 167.5 120.5t48.5 200.5q0 91 -38.5 158.5t-99.5 113t-138 68t-153 22.5q-93 0 -168.5 -30t-129.5 -85t-83 -130.5t-29 -168.5v-1098z" />
<glyph unicode="&#xe0;" horiz-adv-x="1109" d="M75 275q0 -81 27.5 -137.5t76 -93t113 -52t136.5 -15.5q112 0 208 38.5t169 124.5q0 -86 40.5 -124.5t107.5 -38.5q81 0 127 27v136q-32 -10 -54 -10q-41 0 -48 29t-7 91v551q0 93 -35.5 150.5t-93.5 90t-129.5 42.5t-143.5 10q-89 0 -170 -18.5t-142.5 -60.5t-99 -111 t-41.5 -168h176q6 118 80 160.5t187 42.5q41 0 83.5 -6t76 -24.5t55.5 -54t22 -92.5q0 -50 -29 -76t-78.5 -39.5t-114.5 -21t-138 -21.5q-68 -12 -133 -31t-116 -55t-81.5 -94t-30.5 -149zM261 288q0 67 29.5 104.5t77.5 58.5t107.5 30t118.5 16.5t113 18.5t87 36v-179 q0 -38 -18 -80.5t-57.5 -78.5t-102 -60t-148.5 -24q-40 0 -78.5 8t-66 27t-45 49t-17.5 74zM279 1512l271 -296h133l-178 296h-226z" />
<glyph unicode="&#xe1;" horiz-adv-x="1109" d="M75 275q0 -81 27.5 -137.5t76 -93t113 -52t136.5 -15.5q112 0 208 38.5t169 124.5q0 -86 40.5 -124.5t107.5 -38.5q81 0 127 27v136q-32 -10 -54 -10q-41 0 -48 29t-7 91v551q0 93 -35.5 150.5t-93.5 90t-129.5 42.5t-143.5 10q-89 0 -170 -18.5t-142.5 -60.5t-99 -111 t-41.5 -168h176q6 118 80 160.5t187 42.5q41 0 83.5 -6t76 -24.5t55.5 -54t22 -92.5q0 -50 -29 -76t-78.5 -39.5t-114.5 -21t-138 -21.5q-68 -12 -133 -31t-116 -55t-81.5 -94t-30.5 -149zM261 288q0 67 29.5 104.5t77.5 58.5t107.5 30t118.5 16.5t113 18.5t87 36v-179 q0 -38 -18 -80.5t-57.5 -78.5t-102 -60t-148.5 -24q-40 0 -78.5 8t-66 27t-45 49t-17.5 74zM430 1216h133l270 296h-225z" />
<glyph unicode="&#xe2;" horiz-adv-x="1109" d="M75 275q0 -81 27.5 -137.5t76 -93t113 -52t136.5 -15.5q112 0 208 38.5t169 124.5q0 -86 40.5 -124.5t107.5 -38.5q81 0 127 27v136q-32 -10 -54 -10q-41 0 -48 29t-7 91v551q0 93 -35.5 150.5t-93.5 90t-129.5 42.5t-143.5 10q-89 0 -170 -18.5t-142.5 -60.5t-99 -111 t-41.5 -168h176q6 118 80 160.5t187 42.5q41 0 83.5 -6t76 -24.5t55.5 -54t22 -92.5q0 -50 -29 -76t-78.5 -39.5t-114.5 -21t-138 -21.5q-68 -12 -133 -31t-116 -55t-81.5 -94t-30.5 -149zM246 1216h159l145 199l143 -199h174l-216 296h-191zM261 288q0 67 29.5 104.5 t77.5 58.5t107.5 30t118.5 16.5t113 18.5t87 36v-179q0 -38 -18 -80.5t-57.5 -78.5t-102 -60t-148.5 -24q-40 0 -78.5 8t-66 27t-45 49t-17.5 74z" />
<glyph unicode="&#xe3;" horiz-adv-x="1109" d="M75 275q0 -81 27.5 -137.5t76 -93t113 -52t136.5 -15.5q112 0 208 38.5t169 124.5q0 -86 40.5 -124.5t107.5 -38.5q81 0 127 27v136q-32 -10 -54 -10q-41 0 -48 29t-7 91v551q0 93 -35.5 150.5t-93.5 90t-129.5 42.5t-143.5 10q-89 0 -170 -18.5t-142.5 -60.5t-99 -111 t-41.5 -168h176q6 118 80 160.5t187 42.5q41 0 83.5 -6t76 -24.5t55.5 -54t22 -92.5q0 -50 -29 -76t-78.5 -39.5t-114.5 -21t-138 -21.5q-68 -12 -133 -31t-116 -55t-81.5 -94t-30.5 -149zM207 1235h107q-4 40 31.5 63.5t68.5 23.5q29 0 65 -12.5t73 -26.5q38 -16 74 -29 t63 -13q59 0 97.5 18t65.5 46q52 73 64 166h-107q-10 -32 -32 -61.5t-63 -29.5q-33 0 -67.5 13.5t-69.5 28.5t-73 27.5t-80 12.5q-49 0 -84.5 -18.5t-60 -49t-42.5 -72t-30 -87.5zM261 288q0 67 29.5 104.5t77.5 58.5t107.5 30t118.5 16.5t113 18.5t87 36v-179 q0 -38 -18 -80.5t-57.5 -78.5t-102 -60t-148.5 -24q-40 0 -78.5 8t-66 27t-45 49t-17.5 74z" />
<glyph unicode="&#xe4;" horiz-adv-x="1109" d="M75 275q0 -81 27.5 -137.5t76 -93t113 -52t136.5 -15.5q112 0 208 38.5t169 124.5q0 -86 40.5 -124.5t107.5 -38.5q81 0 127 27v136q-32 -10 -54 -10q-41 0 -48 29t-7 91v551q0 93 -35.5 150.5t-93.5 90t-129.5 42.5t-143.5 10q-89 0 -170 -18.5t-142.5 -60.5t-99 -111 t-41.5 -168h176q6 118 80 160.5t187 42.5q41 0 83.5 -6t76 -24.5t55.5 -54t22 -92.5q0 -50 -29 -76t-78.5 -39.5t-114.5 -21t-138 -21.5q-68 -12 -133 -31t-116 -55t-81.5 -94t-30.5 -149zM261 288q0 67 29.5 104.5t77.5 58.5t107.5 30t118.5 16.5t113 18.5t87 36v-179 q0 -38 -18 -80.5t-57.5 -78.5t-102 -60t-148.5 -24q-40 0 -78.5 8t-66 27t-45 49t-17.5 74zM269 1224h187v215h-187v-215zM658 1224h186v215h-186v-215z" />
<glyph unicode="&#xe5;" horiz-adv-x="1109" d="M75 275q0 -81 27.5 -137.5t76 -93t113 -52t136.5 -15.5q112 0 208 38.5t169 124.5q0 -86 40.5 -124.5t107.5 -38.5q81 0 127 27v136q-32 -10 -54 -10q-41 0 -48 29t-7 91v551q0 93 -35.5 150.5t-93.5 90t-129.5 42.5t-143.5 10q-89 0 -170 -18.5t-142.5 -60.5t-99 -111 t-41.5 -168h176q6 118 80 160.5t187 42.5q41 0 83.5 -6t76 -24.5t55.5 -54t22 -92.5q0 -50 -29 -76t-78.5 -39.5t-114.5 -21t-138 -21.5q-68 -12 -133 -31t-116 -55t-81.5 -94t-30.5 -149zM261 288q0 67 29.5 104.5t77.5 58.5t107.5 30t118.5 16.5t113 18.5t87 36v-179 q0 -38 -18 -80.5t-57.5 -78.5t-102 -60t-148.5 -24q-40 0 -78.5 8t-66 27t-45 49t-17.5 74zM322 1370q0 -48 19 -90.5t51 -74.5t74.5 -51t90.5 -19q47 0 89.5 19t74 51t50.5 74.5t19 90.5q0 47 -19 89.5t-50.5 74.5t-74 50.5t-89.5 18.5q-48 0 -90.5 -18.5t-74.5 -50.5 t-51 -74.5t-19 -89.5zM416 1370q0 59 40.5 99.5t100.5 40.5q59 0 99.5 -40.5t40.5 -99.5q0 -60 -40.5 -100.5t-99.5 -40.5q-60 0 -100.5 40.5t-40.5 100.5z" />
<glyph unicode="&#xe6;" horiz-adv-x="1798" d="M75 275q0 -81 27.5 -137.5t76 -93t115 -52t142.5 -15.5q149 0 270 49t182 158q27 -60 67 -99.5t90.5 -63t108.5 -34t121 -10.5q181 0 302 92.5t160 267.5h-180q-25 -105 -98 -156t-172 -51q-81 0 -142 28t-100.5 77t-59 112.5t-19.5 134.5h784q0 124 -22.5 235.5 t-78.5 195.5t-148 132.5t-233 48.5q-97 0 -192 -36t-149 -119q-25 50 -66.5 80.5t-91 47.5t-101.5 22t-99 5q-89 0 -170 -18.5t-142.5 -60.5t-99 -111t-41.5 -168h176q6 118 80 160.5t187 42.5q43 0 86.5 -5t78 -22.5t56 -51t21.5 -86.5q0 -48 -20.5 -73.5t-64 -41.5 t-113.5 -26.5t-167 -28.5q-68 -12 -133 -31t-116 -55t-81.5 -94t-30.5 -149zM261 288q0 49 17.5 82t46.5 54.5t68 34.5t83 21q41 8 87.5 14.5t90 13.5t82 17t65.5 27v-179q0 -38 -19.5 -80.5t-60 -78.5t-104 -60t-149.5 -24q-40 0 -78.5 8t-66 27t-45 49t-17.5 74zM966 637 q0 67 20.5 121.5t60 95t95.5 63t126 22.5t125 -23.5t92 -64t56.5 -96.5t21.5 -118h-597z" />
<glyph unicode="&#xe7;" horiz-adv-x="1109" d="M75 521q0 -114 28.5 -209t84.5 -165t140 -113.5t193 -51.5l-109 -142l34 -57q24 8 42.5 12t42.5 4q42 0 70 -17t28 -47q0 -18 -12.5 -29.5t-31 -19.5t-41.5 -11.5t-43 -3.5q-33 0 -67.5 8.5t-58.5 18.5l-38 -91q48 -16 94.5 -27.5t95.5 -11.5q44 0 89.5 9t82.5 30.5 t61 57t24 87.5q0 76 -53.5 113.5t-120.5 37.5q-47 0 -68 -15l-5 5l69 87q188 8 300 115.5t140 295.5h-179q-17 -124 -90.5 -192.5t-203.5 -68.5q-83 0 -142.5 33.5t-97 88t-55 124.5t-17.5 145q0 81 16.5 156t55 133.5t102.5 93.5t159 35q112 0 178 -56t86 -157h182 q-10 95 -49.5 164.5t-100.5 114.5t-140 67t-171 22q-127 0 -221.5 -44.5t-158 -122t-94 -182t-30.5 -224.5z" />
<glyph unicode="&#xe8;" horiz-adv-x="1109" d="M75 537q4 -122 35.5 -225t96 -177.5t159 -116t222.5 -41.5q182 0 301.5 91.5t154.5 270.5h-173q-24 -105 -95 -157t-182 -52q-87 0 -151 29t-105.5 78t-60.5 110q-16 58 -16 121v14h801v31q0 83 -20 174q-20 107 -77 198.5t-151 150t-237 58.5q-110 0 -201.5 -41.5 t-159.5 -115.5t-104.5 -175.5t-36.5 -224.5zM261 637q4 62 26.5 117t62 96.5t94.5 65t123 23.5q66 0 120.5 -23.5t95 -64t64.5 -96.5t28 -118h-614zM279 1512l271 -296h133l-178 296h-226z" />
<glyph unicode="&#xe9;" horiz-adv-x="1109" d="M75 537q4 -122 35.5 -225t96 -177.5t159 -116t222.5 -41.5q182 0 301.5 91.5t154.5 270.5h-173q-24 -105 -95 -157t-182 -52q-87 0 -151 29t-105.5 78t-60.5 110q-16 58 -16 121v14h801v31q0 83 -20 174q-20 107 -77 198.5t-151 150t-237 58.5q-110 0 -201.5 -41.5 t-159.5 -115.5t-104.5 -175.5t-36.5 -224.5zM261 637q4 62 26.5 117t62 96.5t94.5 65t123 23.5q66 0 120.5 -23.5t95 -64t64.5 -96.5t28 -118h-614zM430 1216h133l270 296h-225z" />
<glyph unicode="&#xea;" horiz-adv-x="1109" d="M75 537q4 -122 35.5 -225t96 -177.5t159 -116t222.5 -41.5q182 0 301.5 91.5t154.5 270.5h-173q-24 -105 -95 -157t-182 -52q-87 0 -151 29t-105.5 78t-60.5 110q-16 58 -16 121v14h801v31q0 83 -20 174q-20 107 -77 198.5t-151 150t-237 58.5q-110 0 -201.5 -41.5 t-159.5 -115.5t-104.5 -175.5t-36.5 -224.5zM246 1216h159l145 199l143 -199h174l-216 296h-191zM261 637q4 62 26.5 117t62 96.5t94.5 65t123 23.5q66 0 120.5 -23.5t95 -64t64.5 -96.5t28 -118h-614z" />
<glyph unicode="&#xeb;" horiz-adv-x="1109" d="M75 537q4 -122 35.5 -225t96 -177.5t159 -116t222.5 -41.5q182 0 301.5 91.5t154.5 270.5h-173q-24 -105 -95 -157t-182 -52q-87 0 -151 29t-105.5 78t-60.5 110q-16 58 -16 121v14h801v31q0 83 -20 174q-20 107 -77 198.5t-151 150t-237 58.5q-110 0 -201.5 -41.5 t-159.5 -115.5t-104.5 -175.5t-36.5 -224.5zM261 637q4 62 26.5 117t62 96.5t94.5 65t123 23.5q66 0 120.5 -23.5t95 -64t64.5 -96.5t28 -118h-614zM269 1224h187v215h-187v-215zM658 1224h186v215h-186v-215z" />
<glyph unicode="&#xec;" horiz-adv-x="458" d="M-45 1512l268 -296h133l-178 296h-223zM142 0h176v1070h-176v-1070z" />
<glyph unicode="&#xed;" horiz-adv-x="458" d="M103 1216h132l272 296h-225zM142 0h176v1070h-176v-1070z" />
<glyph unicode="&#xee;" horiz-adv-x="458" d="M-79 1216h158l144 199l143 -199h174l-215 296h-193zM142 0h176v1070h-176v-1070z" />
<glyph unicode="&#xef;" horiz-adv-x="458" d="M-56 1224h184v215h-184v-215zM142 0h176v1070h-176v-1070zM331 1224h186v215h-186v-215z" />
<glyph unicode="&#xf0;" horiz-adv-x="1186" d="M75 533q0 -118 32.5 -219t99 -176.5t164 -118t223.5 -42.5q128 0 224 42.5t162 118t99.5 177t33.5 218.5q0 239 -86 438.5t-275 354.5l239 109l-73 77l-247 -116q-42 33 -87 64l-73 52l-145 -93q29 -16 70.5 -43.5t74.5 -55.5l-225 -106l78 -83l238 112q25 -16 58 -47 t68.5 -72.5t68 -90t57.5 -102.5h-4q-55 64 -130 89.5t-157 25.5q-119 0 -209.5 -42t-153 -113.5t-94 -163.5t-31.5 -194zM261 533q0 160 81.5 259.5t241.5 99.5q91 0 156 -29.5t106.5 -79t61 -113.5t19.5 -137q0 -97 -26 -172t-71.5 -126t-106.5 -78t-129 -27q-69 0 -130 27 t-106.5 78t-71 126t-25.5 172z" />
<glyph unicode="&#xf1;" d="M132 0h176v604q0 73 19.5 134t59 106.5t98.5 70t139 24.5q101 0 159.5 -58t58.5 -157v-724h176v703q0 87 -17.5 158.5t-61 123t-114 80.5t-176.5 29q-238 0 -347 -194h-4v170h-166v-1070zM225 1235h108q-4 40 31 63.5t68 23.5q30 0 65.5 -12.5t73.5 -26.5 q37 -16 73.5 -29t62.5 -13q60 0 98.5 18t65.5 46q52 73 64 166h-108q-10 -32 -31.5 -61.5t-63.5 -29.5q-33 0 -67 13.5t-69 28.5t-73.5 27.5t-80.5 12.5q-49 0 -84.5 -18.5t-60 -49t-42 -72t-30.5 -87.5z" />
<glyph unicode="&#xf2;" horiz-adv-x="1186" d="M75 533q0 -118 32.5 -219t99 -176.5t164 -118t223.5 -42.5q128 0 224 42.5t162 118t99.5 177t33.5 218.5q0 118 -33.5 220.5t-99.5 178t-162 119t-224 43.5q-126 0 -223.5 -43.5t-164 -119t-99 -178t-32.5 -220.5zM261 533q0 97 25.5 173t71 128t106.5 78.5t130 26.5 t129.5 -26.5t106 -78.5t71.5 -127.5t26 -173.5q0 -97 -26 -172t-71.5 -126t-106.5 -78t-129 -27q-69 0 -130 27t-106.5 78t-71 126t-25.5 172zM316 1512l272 -296h132l-178 296h-226z" />
<glyph unicode="&#xf3;" horiz-adv-x="1186" d="M75 533q0 -118 32.5 -219t99 -176.5t164 -118t223.5 -42.5q128 0 224 42.5t162 118t99.5 177t33.5 218.5q0 118 -33.5 220.5t-99.5 178t-162 119t-224 43.5q-126 0 -223.5 -43.5t-164 -119t-99 -178t-32.5 -220.5zM261 533q0 97 25.5 173t71 128t106.5 78.5t130 26.5 t129.5 -26.5t106 -78.5t71.5 -127.5t26 -173.5q0 -97 -26 -172t-71.5 -126t-106.5 -78t-129 -27q-69 0 -130 27t-106.5 78t-71 126t-25.5 172zM468 1216h132l271 296h-226z" />
<glyph unicode="&#xf4;" horiz-adv-x="1186" d="M75 533q0 -118 32.5 -219t99 -176.5t164 -118t223.5 -42.5q128 0 224 42.5t162 118t99.5 177t33.5 218.5q0 118 -33.5 220.5t-99.5 178t-162 119t-224 43.5q-126 0 -223.5 -43.5t-164 -119t-99 -178t-32.5 -220.5zM261 533q0 97 25.5 173t71 128t106.5 78.5t130 26.5 t129.5 -26.5t106 -78.5t71.5 -127.5t26 -173.5q0 -97 -26 -172t-71.5 -126t-106.5 -78t-129 -27q-69 0 -130 27t-106.5 78t-71 126t-25.5 172zM284 1216h158l146 199l142 -199h174l-215 296h-192z" />
<glyph unicode="&#xf5;" horiz-adv-x="1186" d="M75 533q0 -118 32.5 -219t99 -176.5t164 -118t223.5 -42.5q128 0 224 42.5t162 118t99.5 177t33.5 218.5q0 118 -33.5 220.5t-99.5 178t-162 119t-224 43.5q-126 0 -223.5 -43.5t-164 -119t-99 -178t-32.5 -220.5zM244 1235h107q-4 40 31.5 63.5t67.5 23.5q30 0 66 -12.5 t74 -26.5q37 -16 73 -29t63 -13q60 0 98.5 18t65.5 46q51 73 63 166h-107q-10 -32 -32 -61.5t-64 -29.5q-33 0 -67 13.5t-69 28.5t-73 27.5t-79 12.5q-50 0 -85.5 -18.5t-60 -49t-42 -72t-30.5 -87.5zM261 533q0 97 25.5 173t71 128t106.5 78.5t130 26.5t129.5 -26.5 t106 -78.5t71.5 -127.5t26 -173.5q0 -97 -26 -172t-71.5 -126t-106.5 -78t-129 -27q-69 0 -130 27t-106.5 78t-71 126t-25.5 172z" />
<glyph unicode="&#xf6;" horiz-adv-x="1186" d="M75 533q0 -118 32.5 -219t99 -176.5t164 -118t223.5 -42.5q128 0 224 42.5t162 118t99.5 177t33.5 218.5q0 118 -33.5 220.5t-99.5 178t-162 119t-224 43.5q-126 0 -223.5 -43.5t-164 -119t-99 -178t-32.5 -220.5zM261 533q0 97 25.5 173t71 128t106.5 78.5t130 26.5 t129.5 -26.5t106 -78.5t71.5 -127.5t26 -173.5q0 -97 -26 -172t-71.5 -126t-106.5 -78t-129 -27q-69 0 -130 27t-106.5 78t-71 126t-25.5 172zM306 1224h186v215h-186v-215zM695 1224h186v215h-186v-215z" />
<glyph unicode="&#xf7;" horiz-adv-x="1240" d="M99 453h1042v141h-1042v-141zM488 97q0 -54 40.5 -92t93.5 -38q52 0 91 40t39 90q0 53 -38.5 92.5t-93.5 39.5q-53 0 -92.5 -39.5t-39.5 -92.5zM488 949q0 -53 40.5 -92.5t93.5 -39.5q52 0 91 41.5t39 90.5q0 54 -38.5 93.5t-93.5 39.5q-53 0 -92.5 -39.5t-39.5 -93.5z " />
<glyph unicode="&#xf8;" horiz-adv-x="1186" d="M71 4l57 -47l124 136q64 -56 149 -86t193 -30q128 0 224 42.5t162 118t99.5 177t33.5 218.5q0 114 -30.5 212t-89.5 171l124 136l-55 55l-121 -134q-66 59 -151 90t-196 31q-126 0 -223.5 -43.5t-164 -119t-99 -178t-32.5 -220.5q0 -114 30.5 -212t93.5 -175zM261 533 q0 97 25.5 173t71 128t106.5 78.5t130 26.5q138 0 229 -97l-501 -558q-29 51 -45 113.5t-16 135.5zM369 223l500 557q27 -48 42.5 -109t15.5 -138q0 -97 -26 -172t-71.5 -126t-106.5 -78t-129 -27q-132 0 -225 93z" />
<glyph unicode="&#xf9;" d="M132 366q0 -87 18 -158.5t61.5 -123t113.5 -79.5t176 -28q118 0 204.5 47t142.5 146h4v-170h166v1070h-176v-604q0 -73 -19.5 -134t-59 -106.5t-98.5 -70.5t-140 -25q-101 0 -159 58t-58 157v725h-176v-704zM298 1512l271 -296h132l-178 296h-225z" />
<glyph unicode="&#xfa;" d="M132 366q0 -87 18 -158.5t61.5 -123t113.5 -79.5t176 -28q118 0 204.5 47t142.5 146h4v-170h166v1070h-176v-604q0 -73 -19.5 -134t-59 -106.5t-98.5 -70.5t-140 -25q-101 0 -159 58t-58 157v725h-176v-704zM448 1216h133l271 296h-225z" />
<glyph unicode="&#xfb;" d="M132 366q0 -87 18 -158.5t61.5 -123t113.5 -79.5t176 -28q118 0 204.5 47t142.5 146h4v-170h166v1070h-176v-604q0 -73 -19.5 -134t-59 -106.5t-98.5 -70.5t-140 -25q-101 0 -159 58t-58 157v725h-176v-704zM265 1216h159l145 199l143 -199h174l-215 296h-193z" />
<glyph unicode="&#xfc;" d="M132 366q0 -87 18 -158.5t61.5 -123t113.5 -79.5t176 -28q118 0 204.5 47t142.5 146h4v-170h166v1070h-176v-604q0 -73 -19.5 -134t-59 -106.5t-98.5 -70.5t-140 -25q-101 0 -159 58t-58 157v725h-176v-704zM288 1224h186v215h-186v-215zM677 1224h186v215h-186v-215z " />
<glyph unicode="&#xfd;" horiz-adv-x="1034" d="M16 1070l424 -1064l-71 -180q-26 -47 -59 -72t-87 -25q-27 0 -53 8l-50 17v-161q29 -10 60 -14.5t62 -4.5q60 0 103.5 15.5t80 49.5t66 88t60.5 133l466 1210h-187l-300 -875h-4l-312 875h-199zM391 1216h132l271 296h-225z" />
<glyph unicode="&#xfe;" horiz-adv-x="1226" d="M138 -407h176v549h4q29 -47 71.5 -79t90 -50.5t96 -27t88.5 -8.5q122 0 214.5 43.5t153 119t90.5 177t30 214.5q0 114 -31 215.5t-92 179t-153 123t-216 45.5q-113 0 -205.5 -40t-136.5 -130h-4v553h-176v-1884zM308 535q0 75 17.5 147.5t57 129.5t101.5 92t151 35 q85 0 148 -33t103.5 -88.5t60 -127t19.5 -146.5q0 -78 -16.5 -153t-54 -132.5t-98.5 -93t-152 -35.5t-155 34.5t-104.5 90t-59 129.5t-18.5 151z" />
<glyph unicode="&#xff;" horiz-adv-x="1034" d="M16 1070l424 -1064l-71 -180q-26 -47 -59 -72t-87 -25q-27 0 -53 8l-50 17v-161q29 -10 60 -14.5t62 -4.5q60 0 103.5 15.5t80 49.5t66 88t60.5 133l466 1210h-187l-300 -875h-4l-312 875h-199zM229 1224h187v215h-187v-215zM618 1224h187v215h-187v-215z" />
<glyph unicode="&#x152;" horiz-adv-x="2220" d="M79 734q0 -163 44.5 -302.5t130 -243t212 -162.5t289.5 -59q56 0 112.5 11.5t107.5 33t92.5 54.5t67.5 76h4v-142h1000v166h-803v511h724v165h-724v469h790v166h-987v-123h-4q-23 42 -63 71t-89.5 49t-104.5 29t-106 9q-164 0 -293.5 -59t-218 -163t-135 -246t-46.5 -310 zM275 726q0 124 31 237t93.5 198.5t155 135t219.5 49.5q118 0 206 -47.5t129 -110.5q23 -36 26.5 -73t3.5 -71v-622q0 -63 -28.5 -117.5t-78 -92.5t-117 -60t-145.5 -22q-121 0 -213.5 46.5t-155 127.5t-94.5 189.5t-32 232.5z" />
<glyph unicode="&#x153;" horiz-adv-x="1842" d="M75 535q0 -116 28.5 -217t87.5 -177.5t151 -120t219 -43.5q120 0 220 47t150 162q50 -116 152.5 -162.5t236.5 -46.5q352 0 457 362h-168q-31 -99 -107.5 -154t-181.5 -55q-79 0 -138 29t-97.5 78t-56.5 110q-16 58 -17 121v14h776q2 27 3 51q0 97 -19 187 q-26 112 -83.5 194.5t-150.5 131t-228 48.5q-114 0 -218 -46.5t-160 -141.5q-53 112 -149.5 150t-220.5 38q-125 0 -215.5 -43.5t-152 -119t-90 -177t-28.5 -219.5zM261 513q0 79 15.5 155t50.5 136.5t93 97.5t141 37q90 0 148.5 -35t91 -92t45 -128.5t12.5 -146.5 q0 -72 -13.5 -144.5t-47 -131t-91 -95t-145.5 -36.5q-81 0 -139 34.5t-93 89t-51.5 122.5t-16.5 137zM1011 637q-2 133 79 217.5t219 84.5t215 -82.5t77 -219.5h-590z" />
<glyph unicode="&#x178;" horiz-adv-x="1340" d="M4 1477l571 -873v-604h197v604l564 873h-223l-432 -703l-443 703h-234zM383 1591h186v215h-186v-215zM772 1591h185v215h-185v-215z" />
<glyph unicode="&#x2c6;" horiz-adv-x="458" d="M-79 1216h158l144 199l143 -199h174l-215 296h-193z" />
<glyph unicode="&#x2dc;" horiz-adv-x="458" d="M-118 1235h108q-4 40 29 63.5t68 23.5q29 0 65 -12.5t73 -26.5q38 -16 74 -29t63 -13q59 0 98 18t65 46q53 73 65 166h-108q-10 -32 -32 -61.5t-63 -29.5q-33 0 -67 13.5t-69.5 28.5t-74 27.5t-79.5 12.5q-48 0 -82.5 -18.5t-60 -49t-42.5 -72t-30 -87.5z" />
<glyph unicode="&#x2000;" horiz-adv-x="985" />
<glyph unicode="&#x2001;" horiz-adv-x="1970" />
<glyph unicode="&#x2002;" horiz-adv-x="985" />
<glyph unicode="&#x2003;" horiz-adv-x="1970" />
<glyph unicode="&#x2004;" horiz-adv-x="656" />
<glyph unicode="&#x2005;" horiz-adv-x="492" />
<glyph unicode="&#x2006;" horiz-adv-x="328" />
<glyph unicode="&#x2007;" horiz-adv-x="328" />
<glyph unicode="&#x2008;" horiz-adv-x="246" />
<glyph unicode="&#x2009;" horiz-adv-x="394" />
<glyph unicode="&#x200a;" horiz-adv-x="109" />
<glyph unicode="&#x2010;" horiz-adv-x="803" d="M103 492h598v166h-598v-166z" />
<glyph unicode="&#x2011;" horiz-adv-x="803" d="M103 492h598v166h-598v-166z" />
<glyph unicode="&#x2012;" horiz-adv-x="803" d="M103 492h598v166h-598v-166z" />
<glyph unicode="&#x2013;" horiz-adv-x="1034" d="M0 492h1034v166h-1034v-166z" />
<glyph unicode="&#x2014;" horiz-adv-x="2068" d="M269 492h1531v166h-1531v-166z" />
<glyph unicode="&#x2018;" horiz-adv-x="574" d="M174 943h229v230h-121q0 35 5 71.5t19 65t37 46.5t58 18v103q-58 0 -101 -25t-71 -66.5t-41.5 -96t-13.5 -116.5v-230z" />
<glyph unicode="&#x2019;" horiz-adv-x="574" d="M172 1247h122q0 -35 -5 -71.5t-19.5 -65t-37.5 -46.5t-58 -18v-103q59 0 101.5 25t71 66.5t41.5 96.5t13 116v230h-229v-230z" />
<glyph unicode="&#x201a;" horiz-adv-x="574" d="M172 0h122q0 -35 -5 -70t-19.5 -64.5t-37.5 -47t-58 -17.5v-103q59 0 101.5 25t71 66t41.5 96t13 115v229h-229v-229z" />
<glyph unicode="&#x201c;" horiz-adv-x="880" d="M136 943h230v230h-122q0 35 5.5 71.5t20 65t37 46.5t57.5 18v103q-58 0 -101.5 -25t-71 -66.5t-41.5 -96t-14 -116.5v-230zM515 943h229v230h-122q0 35 5.5 71.5t20 65t37 46.5t57.5 18v103q-57 0 -100.5 -25t-71.5 -66.5t-41.5 -96t-13.5 -116.5v-230z" />
<glyph unicode="&#x201d;" horiz-adv-x="880" d="M136 1247h123q0 -35 -5.5 -71.5t-20 -65t-37 -46.5t-58.5 -18v-103q60 0 103 25t70.5 66.5t41 96.5t13.5 116v230h-230v-230zM515 1247h122q0 -35 -5 -71.5t-19.5 -65t-37.5 -46.5t-58 -18v-103q60 0 102.5 25t70.5 66.5t41 96.5t13 116v230h-229v-230z" />
<glyph unicode="&#x201e;" horiz-adv-x="880" d="M136 0h123q0 -35 -5.5 -70t-20 -64.5t-37 -47t-58.5 -17.5v-103q60 0 103 25t70.5 66t41 96t13.5 115v229h-230v-229zM515 0h122q0 -35 -5 -70t-19.5 -64.5t-37.5 -47t-58 -17.5v-103q60 0 102.5 25t70.5 66t41 96t13 115v229h-229v-229z" />
<glyph unicode="&#x2022;" horiz-adv-x="1034" d="M148 738q0 -76 29.5 -143.5t79 -118t116.5 -79t144 -28.5t144 28.5t117.5 79t80 118t29.5 143.5q0 77 -29.5 144t-80 116.5t-117.5 79t-144 29.5t-144 -29.5t-116.5 -79t-79 -116.5t-29.5 -144z" />
<glyph unicode="&#x2026;" horiz-adv-x="2068" d="M229 0h231v229h-231v-229zM918 0h230v229h-230v-229zM1607 0h230v229h-230v-229z" />
<glyph unicode="&#x202f;" horiz-adv-x="394" />
<glyph unicode="&#x2039;" horiz-adv-x="535" d="M103 484l315 -249v179l-207 161l207 161v178l-315 -248v-182z" />
<glyph unicode="&#x203a;" horiz-adv-x="535" d="M118 235l314 249v182l-314 248v-178l207 -161l-207 -161v-179z" />
<glyph unicode="&#x205f;" horiz-adv-x="492" />
<glyph unicode="&#x20ac;" d="M27 571h159q87 -602 594 -602q180 0 318 89v217q-87 -81 -143 -109q-76 -40 -175 -40q-326 0 -393 445h450l55 126h-515q-2 10 -2 21v22v32q0 16 2 33h543l57 126h-586q35 172 116 277q101 132 257 132q151 0 295 -142l95 172q-185 130 -374 130q-245 0 -399 -168 q-139 -146 -189 -401h-111l-54 -126h151q-2 -14 -2 -31v-36v-20q0 -10 2 -21h-95z" />
<glyph unicode="&#x2122;" horiz-adv-x="2047" d="M132 1364h267v-740h141v740h267v113h-675v-113zM981 624h140v712h4l280 -712h89l279 712h4v-712h140v853h-214l-251 -648l-254 648h-217v-853z" />
<glyph unicode="&#xe000;" horiz-adv-x="1064" d="M0 0v1066h1066v-1066h-1066z" />
</font>
</defs>
</svg>
